<?xml version="1.0" encoding="UTF-8"?>
<svg version="1.1" xmlns="http://www.w3.org/2000/svg" width="512" height="512">
<path d="M0 0 C12.84793042 -0.08173602 25.69573538 -0.13495969 38.54389191 -0.16242981 C41.08298153 -0.16908095 43.62203596 -0.17915884 46.16110992 -0.19020844 C50.11036222 -0.2067756 54.059498 -0.21294894 58.00878334 -0.21097374 C59.43999626 -0.21172257 60.87121227 -0.21575598 62.3024044 -0.22350502 C84.69604716 -0.33650055 84.69604716 -0.33650055 92.17234039 6.01834869 C101.01102834 15.17270407 98.42111979 33.54099093 98.23581696 45.37186432 C98.03065371 53.92559333 97.6019864 62.47342084 97.17234039 71.01834869 C98.65444 70.9869278 98.65444 70.9869278 100.16648102 70.95487213 C103.86392231 70.88197861 107.56130126 70.83637176 111.25925446 70.79862213 C112.85376448 70.77861816 114.44820218 70.75140569 116.04245758 70.71659088 C133.86719843 70.33734108 133.86719843 70.33734108 141.23093414 76.83475494 C141.68597321 77.41096588 142.14101227 77.98717682 142.60984039 78.58084869 C143.08292633 79.15963776 143.55601227 79.73842682 144.04343414 80.33475494 C146.46771674 83.95020753 146.30109932 87.29612022 146.30515289 91.51444244 C146.30644196 92.79512604 146.30773102 94.07580963 146.30905914 95.39530182 C146.30696442 96.0618277 146.30486969 96.72835358 146.30271149 97.41507721 C146.29736889 99.44502011 146.30265944 101.47474086 146.30905914 103.50467682 C146.30712555 105.4276358 146.30712555 105.4276358 146.30515289 107.38944244 C146.30402496 108.56434235 146.30289703 109.73924225 146.30173492 110.94974518 C146.19398995 113.50492745 145.92500373 115.59106549 145.17234039 118.01834869 C145.99025055 118.31998932 145.99025055 118.31998932 146.82468414 118.62772369 C150.12713899 120.58391991 152.31073156 123.35280259 154.73484039 126.26834869 C155.2578775 126.88806549 155.78091461 127.50778229 156.31980133 128.14627838 C160.87903773 133.58387459 165.28107101 139.1406094 169.61765289 144.75662994 C171.23576805 146.84552502 172.88741252 148.85873089 174.60202789 150.87381744 C181.3849856 158.8516378 181.3849856 158.8516378 181.17234039 165.01834869 C180.02886585 178.41605881 174.91640846 187.81473465 165.17234039 197.01834869 C159.49923752 201.59343165 152.67246964 206.01834869 145.17234039 206.01834869 C145.66734039 299.57334869 145.66734039 299.57334869 146.17234039 395.01834869 C153.43234039 395.34834869 160.69234039 395.67834869 168.17234039 396.01834869 C168.17234039 406.24834869 168.17234039 416.47834869 168.17234039 427.01834869 C164.22316399 427.03380989 164.22316399 427.03380989 160.19420624 427.04958344 C135.26059504 427.14761511 110.32700706 427.25048804 85.39343357 427.35768795 C72.57796356 427.41267343 59.76249079 427.46609331 46.9469986 427.51566315 C35.760777 427.55893518 24.57457303 427.60531205 13.38837904 427.65522724 C7.48017595 427.68148751 1.57197556 427.70632251 -4.3362484 427.72742271 C-28.71141497 427.81546902 -53.05562102 428.01492455 -77.41597939 428.90408516 C-88.13285861 429.26301343 -98.85637632 429.41557331 -109.57765961 429.58084869 C-110.23470886 429.59118889 -110.89175812 429.60152908 -111.56871796 429.61218262 C-141.90286048 430.08628851 -172.23896725 430.12811584 -202.57627106 430.14128494 C-206.33027608 430.14335013 -210.08427639 430.14711332 -213.83827972 430.15119171 C-219.78986945 430.15704787 -225.74143297 430.15719468 -231.69302368 430.15273094 C-233.91671228 430.15169001 -236.14040225 430.1522587 -238.36408997 430.15448952 C-241.42423829 430.15702824 -244.48431358 430.15326351 -247.54445648 430.14774323 C-248.44778591 430.14977029 -249.35111534 430.15179735 -250.28181839 430.15388584 C-251.10611469 430.15106318 -251.930411 430.14824053 -252.77968597 430.14533234 C-253.49370323 430.14495531 -254.20772049 430.14457829 -254.94337463 430.14418983 C-256.82765961 430.01834869 -256.82765961 430.01834869 -259.82765961 429.01834869 C-259.87702844 424.21286272 -259.91336404 419.40752376 -259.93752289 414.60184479 C-259.94759215 412.96640197 -259.96124841 411.3309772 -259.97853851 409.69559479 C-260.00274666 407.347405 -260.01413318 404.99945282 -260.02297211 402.65116119 C-260.03329468 401.91777527 -260.04361725 401.18438934 -260.05425262 400.4287796 C-260.05465329 398.62372172 -259.94978715 396.8192704 -259.82765961 395.01834869 C-259.16765961 394.35834869 -258.50765961 393.69834869 -257.82765961 393.01834869 C-250.23765961 393.01834869 -242.64765961 393.01834869 -234.82765961 393.01834869 C-234.82765961 330.97834869 -234.82765961 268.93834869 -234.82765961 205.01834869 C-236.80765961 204.68834869 -238.78765961 204.35834869 -240.82765961 204.01834869 C-254.19845626 197.63550124 -262.71489218 186.50230798 -267.63625336 172.76053619 C-269.07759182 167.6910009 -270.37850964 161.97961745 -267.83547211 157.12381744 C-264.15590084 152.02023131 -259.66931648 147.49888531 -255.40969086 142.88162994 C-252.20962329 139.33299223 -249.20618978 135.6507363 -246.22609711 131.91678619 C-243.82765961 129.01834869 -243.82765961 129.01834869 -241.80031586 127.2617569 C-237.53568709 123.29775416 -235.41702197 120.2508022 -235.0200119 114.30612946 C-234.93097765 110.6843525 -234.97827892 107.0768834 -235.07765961 103.45584869 C-235.4225101 84.01862718 -235.4225101 84.01862718 -228.70265961 76.70584869 C-219.03109618 71.02906147 -207.86409908 70.96391917 -196.94094086 70.99881744 C-195.79021088 71.00163727 -194.6394809 71.00445709 -193.45388031 71.00736237 C-192.15390106 71.0128006 -192.15390106 71.0128006 -190.82765961 71.01834869 C-190.83765236 69.9859758 -190.83765236 69.9859758 -190.84784698 68.93274689 C-190.91427216 61.76259792 -190.9594903 54.59253654 -190.99245453 47.42215729 C-191.00583511 44.74685148 -191.02799346 42.0720272 -191.05397797 39.39676666 C-191.09041044 35.54921118 -191.10739789 31.70198284 -191.12062836 27.85428619 C-191.13611221 26.66032227 -191.15159607 25.46635834 -191.16754913 24.23621368 C-191.16889333 17.58794052 -191.02097839 12.51935705 -186.32765961 7.37381744 C-181.38409697 3.524533 -178.19860079 2.88685512 -172.02077484 2.73709869 C-170.97573162 2.71000289 -170.97573162 2.71000289 -169.90957642 2.6823597 C-167.56855826 2.62302297 -165.22744025 2.57057365 -162.88625336 2.51834869 C-161.21059254 2.47788517 -159.53493857 2.43713725 -157.85929108 2.39612579 C-153.28806118 2.2860087 -148.71669858 2.18292795 -144.14525604 2.08206177 C-141.25632659 2.01815329 -138.36743108 1.95285932 -135.47853851 1.88730621 C-90.32328613 0.86851858 -45.16547215 0.29307892 0 0 Z " fill="#C9C8C8" transform="translate(298.8276596069336,40.981651306152344)"/>
<path d="M0 0 C12.84793042 -0.08173602 25.69573538 -0.13495969 38.54389191 -0.16242981 C41.08298153 -0.16908095 43.62203596 -0.17915884 46.16110992 -0.19020844 C50.11036222 -0.2067756 54.059498 -0.21294894 58.00878334 -0.21097374 C59.43999626 -0.21172257 60.87121227 -0.21575598 62.3024044 -0.22350502 C84.69604716 -0.33650055 84.69604716 -0.33650055 92.17234039 6.01834869 C101.01102834 15.17270407 98.42111979 33.54099093 98.23581696 45.37186432 C98.03065371 53.92559333 97.6019864 62.47342084 97.17234039 71.01834869 C98.65444 70.9869278 98.65444 70.9869278 100.16648102 70.95487213 C103.86392231 70.88197861 107.56130126 70.83637176 111.25925446 70.79862213 C112.85376448 70.77861816 114.44820218 70.75140569 116.04245758 70.71659088 C133.86719843 70.33734108 133.86719843 70.33734108 141.23093414 76.83475494 C141.68597321 77.41096588 142.14101227 77.98717682 142.60984039 78.58084869 C143.08292633 79.15963776 143.55601227 79.73842682 144.04343414 80.33475494 C146.46771674 83.95020753 146.30109932 87.29612022 146.30515289 91.51444244 C146.30644196 92.79512604 146.30773102 94.07580963 146.30905914 95.39530182 C146.30696442 96.0618277 146.30486969 96.72835358 146.30271149 97.41507721 C146.29736889 99.44502011 146.30265944 101.47474086 146.30905914 103.50467682 C146.30712555 105.4276358 146.30712555 105.4276358 146.30515289 107.38944244 C146.30402496 108.56434235 146.30289703 109.73924225 146.30173492 110.94974518 C146.19398995 113.50492745 145.92500373 115.59106549 145.17234039 118.01834869 C145.99025055 118.31998932 145.99025055 118.31998932 146.82468414 118.62772369 C150.12713899 120.58391991 152.31073156 123.35280259 154.73484039 126.26834869 C155.2578775 126.88806549 155.78091461 127.50778229 156.31980133 128.14627838 C160.87903773 133.58387459 165.28107101 139.1406094 169.61765289 144.75662994 C171.23576805 146.84552502 172.88741252 148.85873089 174.60202789 150.87381744 C181.3849856 158.8516378 181.3849856 158.8516378 181.17234039 165.01834869 C180.02886585 178.41605881 174.91640846 187.81473465 165.17234039 197.01834869 C156.26776626 204.19945687 148.07581759 206.52621034 136.79734039 206.39334869 C135.33167633 206.41075104 135.33167633 206.41075104 133.83640289 206.42850494 C120.43993701 206.3750616 108.79494756 201.42712015 99.17234039 192.01834869 C95.46071123 187.27876304 92.24223956 182.70042484 90.17234039 177.01834869 C89.03197772 178.72889271 87.92147988 180.46259703 86.91062164 182.25272369 C80.29311729 193.92853959 71.49586041 201.30020753 58.61667633 205.42069244 C54.48906842 206.42991979 50.46542998 206.46403456 46.23484039 206.39334869 C45.35457184 206.38319733 44.47430328 206.37304596 43.56735992 206.36258698 C29.63094061 206.02922927 18.91283651 200.67654626 9.22312164 190.60819244 C5.70846723 186.16968601 3.40572495 181.19454585 1.17234039 176.01834869 C0.77144196 176.85237213 0.37054352 177.68639557 -0.04250336 178.54569244 C-6.75691654 191.83748998 -14.94293467 199.30948115 -28.82765961 205.01834869 C-41.12310144 209.0496411 -53.28991855 207.1598052 -64.95265961 201.89334869 C-75.57494414 196.18942099 -83.57878644 187.26999429 -87.82765961 176.01834869 C-88.22855804 176.85237213 -88.62945648 177.68639557 -89.04250336 178.54569244 C-95.34413915 191.02035922 -102.64329832 198.5915873 -115.82765961 204.01834869 C-116.71582367 204.39346588 -117.60398773 204.76858307 -118.51906586 205.15506744 C-123.22064226 206.38180698 -127.73775664 206.38680828 -132.57765961 206.39334869 C-133.51609711 206.41784088 -134.45453461 206.44233307 -135.42140961 206.46756744 C-146.82737349 206.51482973 -156.7808281 201.8032236 -164.99172211 193.94803619 C-175.82765961 182.30041798 -175.82765961 182.30041798 -175.82765961 176.01834869 C-176.48765961 176.01834869 -177.14765961 176.01834869 -177.82765961 176.01834869 C-178.03390961 177.00834869 -178.24015961 177.99834869 -178.45265961 179.01834869 C-179.83884373 183.82637195 -182.62073994 187.25338036 -185.82765961 191.01834869 C-186.58369476 191.93487213 -186.58369476 191.93487213 -187.35500336 192.86991119 C-193.55935841 199.756897 -203.87972249 205.42440406 -213.20095062 206.22122955 C-215.99621325 206.32358553 -218.78060772 206.34029819 -221.57765961 206.33084869 C-222.51609711 206.34696198 -223.45453461 206.36307526 -224.42140961 206.37967682 C-236.88878921 206.38828689 -245.9125542 202.42897132 -255.02297211 193.98319244 C-263.1466895 185.47336681 -268.28118284 174.75708806 -269.32765961 163.01834869 C-269.04263978 154.86361476 -260.55850506 148.46272839 -255.40969086 142.88162994 C-252.20962329 139.33299223 -249.20618978 135.6507363 -246.22609711 131.91678619 C-243.82765961 129.01834869 -243.82765961 129.01834869 -241.80031586 127.2617569 C-237.53568709 123.29775416 -235.41702197 120.2508022 -235.0200119 114.30612946 C-234.93097765 110.6843525 -234.97827892 107.0768834 -235.07765961 103.45584869 C-235.4225101 84.01862718 -235.4225101 84.01862718 -228.70265961 76.70584869 C-219.03109618 71.02906147 -207.86409908 70.96391917 -196.94094086 70.99881744 C-195.79021088 71.00163727 -194.6394809 71.00445709 -193.45388031 71.00736237 C-192.15390106 71.0128006 -192.15390106 71.0128006 -190.82765961 71.01834869 C-190.83765236 69.9859758 -190.83765236 69.9859758 -190.84784698 68.93274689 C-190.91427216 61.76259792 -190.9594903 54.59253654 -190.99245453 47.42215729 C-191.00583511 44.74685148 -191.02799346 42.0720272 -191.05397797 39.39676666 C-191.09041044 35.54921118 -191.10739789 31.70198284 -191.12062836 27.85428619 C-191.13611221 26.66032227 -191.15159607 25.46635834 -191.16754913 24.23621368 C-191.16889333 17.58794052 -191.02097839 12.51935705 -186.32765961 7.37381744 C-181.38409697 3.524533 -178.19860079 2.88685512 -172.02077484 2.73709869 C-170.97573162 2.71000289 -170.97573162 2.71000289 -169.90957642 2.6823597 C-167.56855826 2.62302297 -165.22744025 2.57057365 -162.88625336 2.51834869 C-161.21059254 2.47788517 -159.53493857 2.43713725 -157.85929108 2.39612579 C-153.28806118 2.2860087 -148.71669858 2.18292795 -144.14525604 2.08206177 C-141.25632659 2.01815329 -138.36743108 1.95285932 -135.47853851 1.88730621 C-90.32328613 0.86851858 -45.16547215 0.29307892 0 0 Z " fill="#0D0908" transform="translate(298.8276596069336,40.981651306152344)"/>
<path d="M0 0 C0.85142075 -0.00350464 1.70284149 -0.00700928 2.58006287 -0.01062012 C5.37865495 -0.01938044 8.17699152 -0.01360634 10.97558594 -0.00683594 C12.93463184 -0.00818472 14.89367741 -0.01012703 16.85272217 -0.01263428 C20.95474439 -0.01557826 25.05667935 -0.0113131 29.15869141 -0.00195312 C34.39144004 0.00941073 39.62398279 0.00289676 44.85672379 -0.00909805 C48.90272542 -0.01636208 52.94867914 -0.01400744 56.99468231 -0.00884247 C58.92260513 -0.00751694 60.85053243 -0.00911485 62.77845001 -0.01380157 C90.00735357 -0.06545156 90.00735357 -0.06545156 97.20996094 6.25878906 C102.39727988 11.9351483 101.75709279 17.80450513 101.67993164 25.20214844 C101.68212204 26.50702209 101.68431244 27.81189575 101.68656921 29.15631104 C101.69197801 32.72723463 101.6725977 36.29763713 101.64846826 39.86846733 C101.62709716 43.62018039 101.62776334 47.37189298 101.6257782 51.12365723 C101.61933315 57.43181244 101.5981092 63.73977362 101.56665039 70.04785156 C101.52651119 78.10632356 101.50897954 86.16466862 101.49934101 94.22322845 C101.49098456 101.18833083 101.47376143 108.15340716 101.4543035 115.1184864 C101.45027356 116.60382577 101.4465312 118.08916594 101.44308114 119.57450676 C101.43165682 124.47648362 101.41138608 129.3783436 101.38696289 134.28027344 C101.38427399 135.49221375 101.38158508 136.70415405 101.3788147 137.95281982 C101.32840535 146.0891225 100.88020001 154.15051169 100.20996094 162.25878906 C114.45246019 163.04865677 114.45246019 163.04865677 128.70996094 163.25878906 C138.21670701 163.15697652 147.71889685 163.79296997 157.20996094 164.25878906 C157.20996094 174.48878906 157.20996094 184.71878906 157.20996094 195.25878906 C153.26078453 195.27425026 153.26078453 195.27425026 149.23182678 195.2900238 C124.29821558 195.38805548 99.3646276 195.49092841 74.43105412 195.59812832 C61.6155841 195.6531138 48.80011134 195.70653368 35.98461914 195.75610352 C24.79839754 195.79937555 13.61219358 195.84575242 2.42599958 195.89566761 C-3.48220351 195.92192788 -9.39040389 195.94676288 -15.29862785 195.96786308 C-39.67379443 196.05590939 -64.01800048 196.25536492 -88.37835884 197.14452553 C-99.09523806 197.5034538 -109.81875578 197.65601368 -120.54003906 197.82128906 C-121.19708832 197.83162926 -121.85413757 197.84196945 -122.53109741 197.85262299 C-152.86523993 198.32672888 -183.2013467 198.3685562 -213.53865051 198.38172531 C-217.29265554 198.3837905 -221.04665585 198.38755369 -224.80065918 198.39163208 C-230.75224891 198.39748824 -236.70381243 198.39763505 -242.65540314 198.39317131 C-244.87909173 198.39213038 -247.1027817 198.39269906 -249.32646942 198.39492989 C-252.38661774 198.39746861 -255.44669304 198.39370388 -258.50683594 198.38818359 C-259.41016537 198.39021066 -260.3134948 198.39223772 -261.24419785 198.39432621 C-262.06849415 198.39150355 -262.89279045 198.3886809 -263.74206543 198.38577271 C-264.45608269 198.38539568 -265.17009995 198.38501865 -265.90575409 198.3846302 C-267.79003906 198.25878906 -267.79003906 198.25878906 -270.79003906 197.25878906 C-270.83940789 192.45330309 -270.87574349 187.64796412 -270.89990234 182.84228516 C-270.9099716 181.20684234 -270.92362787 179.57141757 -270.94091797 177.93603516 C-270.96512611 175.58784536 -270.97651264 173.23989319 -270.98535156 170.89160156 C-270.99567413 170.15821564 -271.0059967 169.42482971 -271.01663208 168.66921997 C-271.01703275 166.86416209 -270.91216661 165.05971076 -270.79003906 163.25878906 C-268.79003906 161.25878906 -268.79003906 161.25878906 -266.9706949 161.0168041 C-266.22720249 161.0206013 -265.48371009 161.02439851 -264.71768761 161.02831078 C-263.86027359 161.02781207 -263.00285958 161.02731337 -262.11946332 161.02679956 C-260.69827835 161.04137451 -260.69827835 161.04137451 -259.24838257 161.0562439 C-258.24620339 161.0586186 -257.24402421 161.0609933 -256.21147597 161.06343997 C-252.83179106 161.07391 -249.45236233 161.09879514 -246.07275391 161.12353516 C-243.65870006 161.1339545 -241.24464226 161.14349098 -238.83058167 161.15220642 C-233.62220304 161.17300687 -228.41389479 161.1999848 -223.20557785 161.23252487 C-215.67517371 161.27956208 -208.14474889 161.31554615 -200.61427279 161.34880812 C-188.39742504 161.403071 -176.1806408 161.466308 -163.96386719 161.53515625 C-152.09442159 161.60202797 -140.22496611 161.66469328 -128.35546875 161.72167969 C-127.62418028 161.72519213 -126.89289181 161.72870457 -126.13944308 161.73232345 C-122.47088722 161.74991782 -118.80233097 161.76742927 -115.13377452 161.78489947 C-84.68579097 161.9300046 -54.23790002 162.08980917 -23.79003906 162.25878906 C-23.95177581 161.64956289 -24.11351255 161.04033672 -24.28015041 160.41264915 C-24.87779683 157.88808471 -24.95191527 155.57857493 -24.99536133 152.98388672 C-25.01527634 151.91172913 -25.03519135 150.83957153 -25.05570984 149.73492432 C-25.07245255 148.55944031 -25.08919525 147.3839563 -25.10644531 146.17285156 C-25.12749832 144.92421326 -25.14855133 143.67557495 -25.17024231 142.38909912 C-25.23765016 138.22073127 -25.29661643 134.05232281 -25.35253906 129.88378906 C-25.36229012 129.17104073 -25.37204117 128.45829239 -25.38208771 127.72394562 C-25.50862297 118.43565701 -25.61652175 109.14723373 -25.71125031 99.85856819 C-25.7550034 95.56835331 -25.80079091 91.2781802 -25.85113525 86.98803711 C-25.96613884 77.15174819 -26.06312322 67.31573095 -26.11666965 57.47889519 C-26.14049994 53.13147727 -26.17231866 48.78449366 -26.22463989 44.43731689 C-26.27354854 40.32128059 -26.29789952 36.20580065 -26.30393028 32.08948517 C-26.31020449 30.57306089 -26.32500637 29.05664348 -26.34910011 27.54039764 C-26.47277574 19.39575571 -26.54540078 12.58166596 -20.79003906 6.25878906 C-14.92817714 0.39692714 -7.86029374 -0.04029301 0 0 Z " fill="#FE3A13" transform="translate(309.7900390625,272.7412109375)"/>
<path d="M0 0 C0.88204102 -0.00315216 1.76408203 -0.00630432 2.67285156 -0.009552 C3.63803711 -0.00752777 4.60322266 -0.00550354 5.59765625 -0.00341797 C6.62342773 -0.00437469 7.64919922 -0.00533142 8.70605469 -0.00631714 C10.90869202 -0.00700029 13.11133133 -0.0051367 15.31396484 -0.00097656 C18.50884289 0.00415165 21.70356527 -0.0007969 24.8984375 -0.00732422 C37.3007625 -0.01171491 49.68631621 0.18854654 62.08313942 0.51617432 C82.81763015 1.06071349 103.55119006 1.30769266 124.29126358 1.50651932 C129.75513938 1.55891573 135.21898596 1.61400701 140.68283081 1.66952515 C144.38816251 1.70700264 148.09349508 1.74439368 151.79882812 1.78173828 C152.72420576 1.79106801 153.6495834 1.80039774 154.60300279 1.81001019 C165.09326948 1.91542032 175.58354814 2.01532971 186.07397461 2.10351562 C194.53411573 2.17469071 202.9940875 2.25621811 211.4540121 2.34973347 C215.89690199 2.39842528 220.33970001 2.44185136 224.7827549 2.47237778 C228.92599914 2.50089243 233.06888072 2.54298398 237.21188736 2.59556198 C238.72677163 2.61235642 240.24172119 2.62413873 241.75668526 2.63048553 C243.82618254 2.63989255 245.89468944 2.6674485 247.96394348 2.69943237 C249.11933026 2.71011686 250.27471704 2.72080135 251.46511555 2.73180962 C256.37326421 3.3425705 259.6266169 5.01205469 262.97265625 8.62939453 C265.71907463 12.6981625 265.79363006 15.82744781 265.82128906 20.6328125 C265.82625397 21.28846191 265.83121887 21.94411133 265.83633423 22.61962891 C265.85092978 24.78695732 265.85775331 26.95421256 265.86328125 29.12158203 C265.86903467 30.629893 265.87479238 32.13820395 265.8805542 33.64651489 C265.89105664 36.80894308 265.89690431 39.97134589 265.90039062 43.13378906 C265.90587506 47.18129902 265.92990488 51.22847254 265.95836258 55.275877 C265.97700773 58.3917437 265.98219554 61.50752964 265.9837265 64.62344742 C265.98674913 66.11535609 265.99476453 67.60726347 266.00791168 69.09911728 C266.02501283 71.18873282 266.02308266 73.27752991 266.01660156 75.3671875 C266.02024719 76.55504852 266.02389282 77.74290955 266.02764893 78.96676636 C265.62018785 82.47336105 264.76927171 84.3252252 262.66015625 87.12939453 C252.86800064 93.42435171 240.95360408 92.42958006 229.80004883 92.43237305 C227.9884758 92.44004465 226.17690631 92.44859298 224.36534119 92.45794678 C220.47117033 92.47618132 216.57704704 92.48824929 212.68284035 92.49548531 C206.48412124 92.50705752 200.28550501 92.53256468 194.08683777 92.55979919 C184.23720316 92.60143972 174.38756326 92.63382979 164.53788251 92.66227335 C147.02046407 92.71300554 129.50309471 92.77656074 111.98574752 92.84761375 C105.86741702 92.87203684 99.74909727 92.89156036 93.6307382 92.90712947 C74.74075438 92.95747497 55.8596034 93.08991768 36.9753418 93.58227539 C35.83977449 93.61111932 35.83977449 93.61111932 34.68126643 93.64054596 C32.50403948 93.69728201 30.32698669 93.75810144 28.14994812 93.82164001 C27.45690144 93.84152853 26.76385475 93.86141704 26.04980665 93.88190824 C22.31429847 94.00189172 18.59265833 94.19100334 14.86455727 94.45692635 C14.06470714 94.51146369 13.26485702 94.56600103 12.44076902 94.62219101 C10.92026615 94.72927078 9.40044568 94.84682333 7.88177651 94.97735685 C2.06289867 95.38473983 -3.40227239 94.85554266 -8.546875 91.83251953 C-12.72126608 88.05423855 -16.08397248 84.67088548 -16.51171875 78.75048828 C-16.52559717 76.53341045 -16.47260557 74.3420916 -16.33984375 72.12939453 C-17.1390625 72.14099609 -17.93828125 72.15259766 -18.76171875 72.16455078 C-26.34794914 72.22687897 -33.79241887 71.8909365 -41.33984375 71.12939453 C-41.33984375 70.46939453 -41.33984375 69.80939453 -41.33984375 69.12939453 C-39.61143968 68.954997 -37.882037 68.79050438 -36.15234375 68.62939453 C-35.18941406 68.53658203 -34.22648437 68.44376953 -33.234375 68.34814453 C-29.67393848 68.14816013 -26.16139507 68.10793252 -22.59643555 68.11572266 C-21.42501511 68.11769653 -20.25359467 68.11967041 -19.04667664 68.1217041 C-17.70679436 68.12551086 -17.70679436 68.12551086 -16.33984375 68.12939453 C-16.34650558 67.44114594 -16.35316742 66.75289734 -16.36003113 66.04379272 C-16.42645631 58.87364376 -16.47167444 51.70358237 -16.50463867 44.53320312 C-16.51801926 41.85789732 -16.5401776 39.18307304 -16.56616211 36.5078125 C-16.60259459 32.66025702 -16.61958203 28.81302868 -16.6328125 24.96533203 C-16.64829636 23.7713681 -16.66378021 22.57740417 -16.67973328 21.34725952 C-16.68107747 14.69898636 -16.53316253 9.63040288 -11.83984375 4.48486328 C-7.81335216 1.34965238 -5.06471064 0.00523543 0 0 Z " fill="#4343FE" transform="translate(124.33984375,43.87060546875)"/>
<path d="M0 0 C1.00172241 0.00374634 1.00172241 0.00374634 2.02368164 0.00756836 C2.82926514 0.01667236 3.63484863 0.02577637 4.46484375 0.03515625 C7.08421875 0.05578125 9.70359375 0.07640625 12.40234375 0.09765625 C12.40234375 10.32765625 12.40234375 20.55765625 12.40234375 31.09765625 C-15.30202971 31.12085982 -43.00640081 31.13867877 -70.71078205 31.14946842 C-83.57599024 31.15461263 -96.44119226 31.16161939 -109.30639648 31.1730957 C-120.5268942 31.18310005 -131.74738744 31.18952331 -142.96788949 31.19174474 C-148.90248588 31.19304212 -154.83706949 31.19606588 -160.77166176 31.20338631 C-166.37187919 31.21023748 -171.97207873 31.21225494 -177.57229996 31.21076393 C-179.61388052 31.21103621 -181.65546175 31.21298684 -183.69703865 31.21686172 C-194.02511815 31.23548181 -204.29164012 31.0756466 -214.60240042 30.46399796 C-223.40406608 29.95758895 -232.19844415 29.92192957 -241.01245117 29.89233398 C-242.86744895 29.8827214 -244.72244468 29.87270955 -246.57743835 29.86233521 C-251.54721587 29.8356454 -256.51700254 29.81444485 -261.48681045 29.79433322 C-266.70511589 29.77224804 -271.92339432 29.74497115 -277.14167786 29.71827698 C-286.99375232 29.66865108 -296.84584202 29.62360246 -306.69794589 29.58025461 C-317.92672764 29.5306225 -329.15548225 29.47580193 -340.38423765 29.42057502 C-363.45535197 29.30721799 -386.52649272 29.20046485 -409.59765625 29.09765625 C-409.59765625 20.51765625 -409.59765625 11.93765625 -409.59765625 3.09765625 C-403.57185303 3.08219505 -403.57185303 3.08219505 -397.42431641 3.06642151 C-360.27664009 2.9707175 -323.12897687 2.87081426 -285.9813236 2.76653931 C-281.07674186 2.75277565 -276.17216002 2.73904767 -271.26757812 2.7253418 C-270.29148189 2.72261349 -269.31538565 2.71988519 -268.30971074 2.71707421 C-252.66515932 2.67343021 -237.02060174 2.63265291 -221.37603974 2.59300364 C-205.23010436 2.55201728 -189.08418 2.50779161 -172.93826103 2.4607777 C-163.90865355 2.4345723 -154.87904718 2.40970963 -145.84942627 2.38858223 C-111.67496271 2.30787413 -77.50327461 2.18211923 -43.3321023 1.67145018 C-41.25703765 1.64077364 -39.18195726 1.61148496 -37.10686874 1.58247292 C-33.30568234 1.527711 -29.50465967 1.46661341 -25.70361328 1.40293884 C-24.60089207 1.38722788 -23.49817085 1.37151692 -22.36203384 1.35532987 C-14.88653498 1.21783623 -7.44604634 -0.05863029 0 0 Z " fill="#4242FD" transform="translate(454.59765625,436.90234375)"/>
<path d="M0 0 C2.42540668 -0.007479 4.85080574 -0.01813584 7.27618408 -0.03204346 C10.63977212 -0.04972249 14.00310111 -0.05406923 17.36672974 -0.05422974 C18.36183563 -0.06136993 19.35694153 -0.06851013 20.38220215 -0.0758667 C21.7511412 -0.07131973 21.7511412 -0.07131973 23.1477356 -0.06668091 C23.93796616 -0.06810593 24.72819672 -0.06953094 25.54237366 -0.07099915 C27.98047485 0.20652766 29.56099286 1.03898868 31.71438599 2.17623901 C31.73771593 16.89233466 31.75536563 31.60842787 31.76619816 46.32453823 C31.77136091 53.15702875 31.77840322 59.98950781 31.78982544 66.82199097 C31.80083306 73.40959206 31.80666222 79.99718432 31.80926323 86.584795 C31.81111799 89.1043218 31.81473956 91.62384792 31.82011604 94.14336967 C31.82732274 97.65881666 31.82837708 101.17421362 31.82791138 104.68966675 C31.83150665 105.74270493 31.83510193 106.7957431 31.83880615 107.88069153 C31.83743149 108.8328656 31.83605682 109.78503967 31.8346405 110.7660675 C31.83602319 112.0146361 31.83602319 112.0146361 31.83743382 113.28842831 C31.71438599 115.17623901 31.71438599 115.17623901 30.71438599 116.17623901 C28.1225135 116.27689684 25.55728493 116.31239975 22.96487427 116.30563354 C22.14840864 116.30736037 21.33194302 116.3090872 20.49073601 116.31086636 C17.75537023 116.31524361 15.02006516 116.31225808 12.28469849 116.30905151 C10.36038188 116.31010777 8.43606542 116.31149205 6.51174927 116.31318665 C1.35309958 116.31599604 -3.80551932 116.31160131 -8.96416473 116.30501175 C-12.14636778 116.30125583 -15.32856792 116.29918012 -18.51077271 116.29754639 C-43.06303609 116.28262404 -67.61252296 116.22863112 -92.16061401 115.73873901 C-93.19184387 115.71918152 -94.22307373 115.69962402 -95.28555298 115.67947388 C-98.11648891 115.62349833 -100.94712126 115.56022642 -103.77780151 115.49264526 C-104.57033325 115.4759227 -105.36286499 115.45920013 -106.17941284 115.44197083 C-110.29884438 115.32902879 -114.23954881 114.96344082 -118.28561401 114.17623901 C-118.28561401 113.84623901 -118.28561401 113.51623901 -118.28561401 113.17623901 C-112.53815373 112.3490398 -106.99361985 112.04067415 -101.19186401 112.07858276 C-100.35973389 112.07999771 -99.52760376 112.08141266 -98.67025757 112.08287048 C-96.04200471 112.08841734 -93.41384063 112.10095956 -90.78561401 112.11373901 C-88.99134442 112.11876089 -87.19707348 112.12332259 -85.40280151 112.12741089 C-81.03037206 112.13836929 -76.65800803 112.15559654 -72.28561401 112.17623901 C-72.43917358 110.87082153 -72.59273315 109.56540405 -72.75094604 108.22042847 C-74.56443659 92.53035768 -74.49233346 76.94257232 -74.28561401 61.17623901 C-74.99991577 61.18147583 -75.71421753 61.18671265 -76.45016479 61.19210815 C-112.41846859 61.42100263 -112.41846859 61.42100263 -117.28561401 58.17623901 C-113.6793152 56.97413941 -110.23656833 56.81145231 -106.47311401 56.61373901 C-105.69790405 56.57128052 -104.92269409 56.52882202 -104.12399292 56.4850769 C-94.18344467 55.99775668 -84.23484723 56.08518013 -74.28561401 56.17623901 C-74.30132446 54.7569812 -74.30132446 54.7569812 -74.31735229 53.30905151 C-74.35422728 49.7156673 -74.37675324 46.12229879 -74.39547729 42.52877808 C-74.40538431 40.98903571 -74.4189137 39.44931134 -74.43649292 37.90963745 C-74.55592453 27.16079228 -73.89156555 16.8077468 -72.28561401 6.17623901 C-71.62561401 6.50623901 -70.96561401 6.83623901 -70.28561401 7.17623901 C-68.26667396 17.2051173 -69.17219135 28.23269385 -69.22311401 38.42623901 C-69.24373901 44.28373901 -69.26436401 50.14123901 -69.28561401 56.17623901 C-53.44561401 56.17623901 -37.60561401 56.17623901 -21.28561401 56.17623901 C-21.36370932 46.50070047 -21.36370932 46.50070047 -21.46578979 36.82540894 C-21.50832541 26.16474805 -20.57539234 15.75402083 -19.28561401 5.17623901 C-20.21030487 5.17845963 -21.13499573 5.18068024 -22.08770752 5.18296814 C-30.8823533 5.20316177 -39.67699109 5.21830912 -48.47165489 5.22805119 C-52.99103169 5.23322832 -57.51038903 5.24022972 -62.02975464 5.25167847 C-66.40644135 5.26269401 -70.78310958 5.26855456 -75.15980911 5.27111626 C-76.81400467 5.27293741 -78.46819944 5.27649173 -80.12238693 5.28196907 C-91.54580123 5.31822491 -102.88637373 4.92373973 -114.28561401 4.17623901 C-111.29302804 2.46733947 -109.04697595 1.90008048 -105.61398315 1.7819519 C-104.68677963 1.7461351 -103.75957611 1.7103183 -102.80427551 1.67341614 C-101.79909378 1.64469925 -100.79391205 1.61598236 -99.75827026 1.58639526 C-98.6972963 1.54958145 -97.63632233 1.51276764 -96.54319763 1.47483826 C-83.93964915 1.05831122 -71.3316447 0.81632652 -58.72311401 0.61373901 C-57.47343842 0.59322479 -56.22376282 0.57271057 -54.93621826 0.55157471 C-36.6249548 0.25710231 -18.31362254 0.05162074 0 0 Z " fill="#121212" transform="translate(224.28561401367188,282.8237609863281)"/>
<path d="M0 0 C0.65880661 0.04722198 1.31761322 0.09444397 1.99638367 0.14309692 C4.08581687 0.29537988 6.17357609 0.46383542 8.26171875 0.6328125 C9.68416483 0.73935428 11.10669086 0.84483432 12.52929688 0.94921875 C16.00361423 1.20646839 19.476619 1.47822939 22.94921875 1.7578125 C22.99602783 2.35746826 23.04283691 2.95712402 23.09106445 3.57495117 C23.66476733 9.82749019 24.85606446 13.89444101 28.94921875 18.7578125 C35.0572573 23.82618491 41.21831595 23.89674989 48.87719727 24.05444336 C49.66668951 24.07371195 50.45618176 24.09298054 51.26959801 24.11283302 C53.93484959 24.1755976 56.60018773 24.23087812 59.265625 24.28515625 C60.21038759 24.30557417 61.15515018 24.32599209 62.12854195 24.34702873 C89.92027622 24.94189343 117.71872167 25.10190083 145.51556015 25.29044342 C149.93344578 25.32046913 154.35132088 25.35189433 158.76919556 25.38348389 C208.3945113 25.73747639 208.3945113 25.73747639 258.02077103 25.88074875 C260.11589198 25.88279219 262.21100404 25.88652963 264.30612183 25.89065552 C268.05567217 25.8963702 271.80513714 25.89505551 275.5546875 25.890625 C276.5899054 25.89260391 277.62512329 25.89458282 278.69171143 25.8966217 C293.06853732 26.25435061 293.06853732 26.25435061 305.13671875 19.5703125 C308.57635956 14.23293883 309.94559195 8.98603064 310.94921875 2.7578125 C315.84217022 2.68347471 320.73479058 2.62912223 325.62817383 2.59301758 C327.29164356 2.57796136 328.9550738 2.55751187 330.6184082 2.53149414 C333.01393397 2.49497043 335.40893342 2.47805468 337.8046875 2.46484375 C338.54446335 2.44935989 339.2842392 2.43387604 340.0464325 2.41792297 C345.41199204 2.41618698 348.69185558 3.51755057 352.49609375 7.29296875 C356.42764053 12.2839908 357.07271295 14.37823973 357.046875 20.734375 C357.04475258 21.76224625 357.04475258 21.76224625 357.04258728 22.81088257 C357.0369855 25.00157011 357.02443281 27.1921558 357.01171875 29.3828125 C357.00670397 30.86718602 357.00214103 32.35156115 356.99804688 33.8359375 C356.98701552 37.47659565 356.96974974 41.11719414 356.94921875 44.7578125 C356.1543736 44.75954875 355.35952845 44.761285 354.54059708 44.76307386 C307.47732273 44.86600423 260.41406267 44.97409549 213.35081578 45.08892944 C207.70539421 45.10269974 202.05997253 45.11642673 196.41455078 45.13012695 C195.29060425 45.13285526 194.16665771 45.13558356 193.0086522 45.13839454 C174.78733749 45.18252216 156.56601656 45.22313764 138.34469093 45.26246511 C119.66104668 45.30286822 100.97741403 45.34702251 82.29378688 45.39469105 C70.75625129 45.42400819 59.21871661 45.45036631 47.68116592 45.47299147 C39.77956062 45.48876626 31.87796954 45.50817022 23.97638001 45.53048091 C19.41118224 45.54326225 14.84599547 45.55439291 10.28078461 45.56123161 C6.10733998 45.56751859 1.93393324 45.5783277 -2.23949064 45.5928458 C-3.75498988 45.59729939 -5.27049522 45.60004479 -6.78600071 45.60097449 C-8.8348603 45.60247276 -10.8837119 45.61060963 -12.93255424 45.6191473 C-14.64471321 45.62313436 -14.64471321 45.62313436 -16.39146125 45.62720197 C-19.0261047 45.57764133 -19.0261047 45.57764133 -21.05078125 46.7578125 C-21.15036246 42.20465328 -21.2225811 37.65214098 -21.27050781 33.09814453 C-21.29050628 31.55213363 -21.31771456 30.00619723 -21.35253906 28.46044922 C-21.70336428 12.47726514 -21.70336428 12.47726514 -17.05078125 5.7578125 C-11.77358781 0.61593171 -7.25153972 -0.55543708 0 0 Z " fill="#C8C8C8" transform="translate(85.05078125,114.2421875)"/>
<path d="M0 0 C2.05078125 0.03255208 4.1015625 0.06510417 6.15234375 0.09765625 C6.15234375 0.42765625 6.15234375 0.75765625 6.15234375 1.09765625 C16.90061664 2.01895032 27.58271444 2.30287965 38.36328125 2.4140625 C40.06963534 2.43469267 41.77598502 2.45569043 43.48233032 2.47703552 C47.92415747 2.5316315 52.36602581 2.58131008 56.80792236 2.62988281 C62.16385289 2.68950668 67.51970991 2.75538284 72.87557983 2.8201828 C80.96778871 2.91740345 89.06004971 3.00679676 97.15234375 3.09765625 C96.49234375 19.92765625 95.83234375 36.75765625 95.15234375 54.09765625 C79.31234375 54.09765625 63.47234375 54.09765625 47.15234375 54.09765625 C46.71484375 36.34765625 46.71484375 36.34765625 46.58422852 30.82519531 C46.36812018 22.21894791 46.02763661 13.66800839 45.15234375 5.09765625 C43.42614984 16.10898835 42.75833485 26.90324627 42.52734375 38.03515625 C42.40359375 43.33578125 42.27984375 48.63640625 42.15234375 54.09765625 C28.95234375 54.75765625 15.75234375 55.41765625 2.15234375 56.09765625 C2.15234375 56.42765625 2.15234375 56.75765625 2.15234375 57.09765625 C15.35234375 57.75765625 28.55234375 58.41765625 42.15234375 59.09765625 C42.29671875 63.61453125 42.44109375 68.13140625 42.58984375 72.78515625 C42.99628872 85.22930491 43.5184512 97.66307874 44.15234375 110.09765625 C43.04834229 110.1227124 41.94434082 110.14776855 40.80688477 110.17358398 C36.67494924 110.26840988 32.54315273 110.36844082 28.41137695 110.4699707 C26.62983473 110.51303741 24.84825868 110.55472971 23.06665039 110.5949707 C20.49224698 110.65336518 17.91800943 110.71685255 15.34375 110.78125 C14.55899796 110.79796249 13.77424591 110.81467499 12.9657135 110.83189392 C9.0731418 110.93403483 5.23990274 111.16359305 1.37046814 111.61048889 C0.57585143 111.70144868 -0.21876528 111.79240847 -1.03746128 111.88612461 C-1.63482562 111.95593005 -2.23218996 112.02573549 -2.84765625 112.09765625 C-2.87098637 97.64232814 -2.88856957 83.18700294 -2.89946842 68.73165989 C-2.90463114 62.02023757 -2.91167338 55.30882693 -2.9230957 48.59741211 C-2.9339219 42.12651889 -2.93993251 35.65563783 -2.94253349 29.18473625 C-2.94438823 26.7098668 -2.94800975 24.23499805 -2.95338631 21.76013374 C-2.96059318 18.30695252 -2.96164734 14.85382224 -2.96118164 11.40063477 C-2.96477692 10.36629807 -2.96837219 9.33196136 -2.97207642 8.26628113 C-2.97070175 7.33093536 -2.96932709 6.3955896 -2.96791077 5.43190002 C-2.96883256 4.61426965 -2.96975435 3.79663927 -2.97070408 2.95423222 C-2.80370619 0.43452693 -2.52481441 0.13344685 0 0 Z " fill="#A8A5A5" transform="translate(107.84765625,284.90234375)"/>
<path d="M0 0 C0.85142075 -0.00350464 1.70284149 -0.00700928 2.58006287 -0.01062012 C5.37865495 -0.01938044 8.17699152 -0.01360634 10.97558594 -0.00683594 C12.93463184 -0.00818472 14.89367741 -0.01012703 16.85272217 -0.01263428 C20.95474439 -0.01557826 25.05667935 -0.0113131 29.15869141 -0.00195312 C34.39144004 0.00941073 39.62398279 0.00289676 44.85672379 -0.00909805 C48.90272542 -0.01636208 52.94867914 -0.01400744 56.99468231 -0.00884247 C58.92260513 -0.00751694 60.85053243 -0.00911485 62.77845001 -0.01380157 C90.00735357 -0.06545156 90.00735357 -0.06545156 97.20996094 6.25878906 C102.39727988 11.9351483 101.75709279 17.80450513 101.67993164 25.20214844 C101.68212204 26.50702209 101.68431244 27.81189575 101.68656921 29.15631104 C101.69197801 32.72723463 101.6725977 36.29763713 101.64846826 39.86846733 C101.62709716 43.62018039 101.62776334 47.37189298 101.6257782 51.12365723 C101.61933315 57.43181244 101.5981092 63.73977362 101.56665039 70.04785156 C101.52651119 78.10632356 101.50897954 86.16466862 101.49934101 94.22322845 C101.49098456 101.18833083 101.47376143 108.15340716 101.4543035 115.1184864 C101.45027356 116.60382577 101.4465312 118.08916594 101.44308114 119.57450676 C101.43165682 124.47648362 101.41138608 129.3783436 101.38696289 134.28027344 C101.38427399 135.49221375 101.38158508 136.70415405 101.3788147 137.95281982 C101.32840535 146.0891225 100.88020001 154.15051169 100.20996094 162.25878906 C99.54996094 161.92878906 98.88996094 161.59878906 98.20996094 161.25878906 C97.29896369 141.97013057 97.09827308 122.69095049 96.99902344 103.38378906 C96.98469854 100.84798121 96.9702731 98.31217391 96.95574951 95.77636719 C96.89712013 85.24986769 96.84129281 74.72339163 96.80859375 64.19677734 C96.78828269 57.68469269 96.75246214 51.17279118 96.70783615 44.66082764 C96.69370813 42.1984912 96.68496097 39.73611759 96.68178177 37.27374268 C96.67688562 33.85576813 96.65377772 30.43836624 96.62646484 27.02050781 C96.62947098 26.01387589 96.63247711 25.00724396 96.63557434 23.97010803 C96.57348143 18.75032914 96.48588565 14.56887773 93.20996094 10.25878906 C87.75588049 6.9892036 82.85514938 6.82710856 76.60620117 6.87060547 C75.6687204 6.86534851 74.73123962 6.86009155 73.76535034 6.85467529 C70.682913 6.84152855 67.6009968 6.85019389 64.51855469 6.86035156 C62.36816815 6.85832947 60.21778227 6.8554169 58.06739807 6.85165405 C53.56773326 6.84723805 49.06824747 6.85363918 44.56860352 6.86767578 C38.80617513 6.88477739 33.04416566 6.87491551 27.28175259 6.85695839 C22.84390617 6.84610987 18.40615883 6.84957166 13.9683094 6.85734177 C11.84366875 6.85934027 9.71901904 6.85689679 7.59438896 6.84990311 C4.62412607 6.84227005 1.65453884 6.8539187 -1.31567383 6.87060547 C-2.62735283 6.86149643 -2.62735283 6.86149643 -3.9655304 6.85220337 C-8.93300363 6.90380837 -12.61163883 7.2791833 -16.79003906 10.25878906 C-19.78009045 14.67319588 -20.16969404 18.29998346 -20.19067383 23.55932617 C-20.19769538 24.26974469 -20.20471693 24.98016321 -20.21195126 25.71210957 C-20.23206124 28.07024273 -20.23154854 30.42792111 -20.23144531 32.78613281 C-20.2426349 34.46825176 -20.25532371 36.15036131 -20.26940918 37.8324585 C-20.29721212 41.42048428 -20.31675171 45.00841688 -20.32962036 48.5965271 C-20.360992 57.04923697 -20.43655331 65.50157814 -20.51394463 73.95397377 C-20.5313844 75.85985208 -20.54835621 77.76573474 -20.56486702 79.67162132 C-20.73018073 98.43960618 -21.20691889 117.18924886 -21.85253906 135.94628906 C-21.89935251 137.320302 -21.94615638 138.69431526 -21.99295044 140.06832886 C-22.24683286 147.46559833 -22.51084643 154.86243129 -22.79003906 162.25878906 C-21.82826248 162.25656845 -20.8664859 162.25434784 -19.87556458 162.25205994 C21.32687691 162.16013212 62.52919487 162.07037847 103.7284584 162.66450882 C105.95839111 162.69626671 108.1883422 162.72622489 110.41830444 162.75582886 C114.53127342 162.81116045 118.64403522 162.87568552 122.75683594 162.94238281 C124.55840904 162.96745911 124.55840904 162.96745911 126.39637756 162.99304199 C127.493405 163.01298218 128.59043243 163.03292236 129.72070312 163.0534668 C130.66693542 163.06901108 131.61316772 163.08455536 132.58807373 163.10057068 C135.21061163 163.25882833 137.64999515 163.68058914 140.20996094 164.25878906 C140.20996094 164.58878906 140.20996094 164.91878906 140.20996094 165.25878906 C133.15667282 166.16403461 126.21102836 166.46601647 119.10400391 166.57176208 C117.91308262 166.59232308 116.72216133 166.61288408 115.49515152 166.63406813 C112.2150085 166.68856838 108.93484251 166.73857183 105.65458155 166.78537472 C103.55198141 166.81554669 101.44940516 166.84709118 99.34682846 166.87885177 C65.00787426 167.39112803 30.66914357 167.39093036 -3.6728555 167.36232779 C-12.75543366 167.35496803 -21.8380104 167.35365892 -30.92059112 167.35253113 C-47.10168581 167.35037295 -63.2827753 167.34380347 -79.46386719 167.33422852 C-95.12923152 167.3249687 -110.7945944 167.31793052 -126.45996094 167.3137207 C-127.43482917 167.31345798 -128.40969739 167.31319526 -129.41410708 167.31292457 C-134.30749813 167.311619 -139.20088918 167.31035542 -144.09428024 167.30911267 C-184.32620367 167.2988414 -224.5581206 167.28102829 -264.79003906 167.25878906 C-264.79003906 175.83878906 -264.79003906 184.41878906 -264.79003906 193.25878906 C-262.47695236 193.25656845 -260.16386566 193.25434784 -257.78068542 193.25205994 C-235.93312629 193.23157049 -214.08556843 193.21671791 -192.23800182 193.20697689 C-181.00721544 193.20183567 -169.77643613 193.19483471 -158.5456543 193.18334961 C-148.74907482 193.17333603 -138.95250048 193.16691985 -129.15591604 193.16470057 C-123.9758521 193.16340473 -118.79580284 193.16039105 -113.61574364 193.15305901 C-108.72467584 193.14619312 -103.83362854 193.14419324 -98.94255638 193.14568138 C-97.16220996 193.14540974 -95.38186274 193.14346806 -93.60152054 193.13958359 C-81.6315966 193.1147822 -69.7374024 193.52015207 -57.79003906 194.25878906 C-58.12003906 194.91878906 -58.45003906 195.57878906 -58.79003906 196.25878906 C-79.37130105 196.92164952 -99.95000334 197.50388059 -120.54003906 197.82128906 C-121.19708832 197.83162926 -121.85413757 197.84196945 -122.53109741 197.85262299 C-152.86523993 198.32672888 -183.2013467 198.3685562 -213.53865051 198.38172531 C-217.29265554 198.3837905 -221.04665585 198.38755369 -224.80065918 198.39163208 C-230.75224891 198.39748824 -236.70381243 198.39763505 -242.65540314 198.39317131 C-244.87909173 198.39213038 -247.1027817 198.39269906 -249.32646942 198.39492989 C-252.38661774 198.39746861 -255.44669304 198.39370388 -258.50683594 198.38818359 C-259.41016537 198.39021066 -260.3134948 198.39223772 -261.24419785 198.39432621 C-262.06849415 198.39150355 -262.89279045 198.3886809 -263.74206543 198.38577271 C-264.45608269 198.38539568 -265.17009995 198.38501865 -265.90575409 198.3846302 C-267.79003906 198.25878906 -267.79003906 198.25878906 -270.79003906 197.25878906 C-270.83940789 192.45330309 -270.87574349 187.64796412 -270.89990234 182.84228516 C-270.9099716 181.20684234 -270.92362787 179.57141757 -270.94091797 177.93603516 C-270.96512611 175.58784536 -270.97651264 173.23989319 -270.98535156 170.89160156 C-270.99567413 170.15821564 -271.0059967 169.42482971 -271.01663208 168.66921997 C-271.01703275 166.86416209 -270.91216661 165.05971076 -270.79003906 163.25878906 C-268.79003906 161.25878906 -268.79003906 161.25878906 -266.9706949 161.0168041 C-266.22720249 161.0206013 -265.48371009 161.02439851 -264.71768761 161.02831078 C-263.86027359 161.02781207 -263.00285958 161.02731337 -262.11946332 161.02679956 C-260.69827835 161.04137451 -260.69827835 161.04137451 -259.24838257 161.0562439 C-258.24620339 161.0586186 -257.24402421 161.0609933 -256.21147597 161.06343997 C-252.83179106 161.07391 -249.45236233 161.09879514 -246.07275391 161.12353516 C-243.65870006 161.1339545 -241.24464226 161.14349098 -238.83058167 161.15220642 C-233.62220304 161.17300687 -228.41389479 161.1999848 -223.20557785 161.23252487 C-215.67517371 161.27956208 -208.14474889 161.31554615 -200.61427279 161.34880812 C-188.39742504 161.403071 -176.1806408 161.466308 -163.96386719 161.53515625 C-152.09442159 161.60202797 -140.22496611 161.66469328 -128.35546875 161.72167969 C-127.62418028 161.72519213 -126.89289181 161.72870457 -126.13944308 161.73232345 C-122.47088722 161.74991782 -118.80233097 161.76742927 -115.13377452 161.78489947 C-84.68579097 161.9300046 -54.23790002 162.08980917 -23.79003906 162.25878906 C-23.95177581 161.64956289 -24.11351255 161.04033672 -24.28015041 160.41264915 C-24.87779683 157.88808471 -24.95191527 155.57857493 -24.99536133 152.98388672 C-25.01527634 151.91172913 -25.03519135 150.83957153 -25.05570984 149.73492432 C-25.07245255 148.55944031 -25.08919525 147.3839563 -25.10644531 146.17285156 C-25.12749832 144.92421326 -25.14855133 143.67557495 -25.17024231 142.38909912 C-25.23765016 138.22073127 -25.29661643 134.05232281 -25.35253906 129.88378906 C-25.36229012 129.17104073 -25.37204117 128.45829239 -25.38208771 127.72394562 C-25.50862297 118.43565701 -25.61652175 109.14723373 -25.71125031 99.85856819 C-25.7550034 95.56835331 -25.80079091 91.2781802 -25.85113525 86.98803711 C-25.96613884 77.15174819 -26.06312322 67.31573095 -26.11666965 57.47889519 C-26.14049994 53.13147727 -26.17231866 48.78449366 -26.22463989 44.43731689 C-26.27354854 40.32128059 -26.29789952 36.20580065 -26.30393028 32.08948517 C-26.31020449 30.57306089 -26.32500637 29.05664348 -26.34910011 27.54039764 C-26.47277574 19.39575571 -26.54540078 12.58166596 -20.79003906 6.25878906 C-14.92817714 0.39692714 -7.86029374 -0.04029301 0 0 Z " fill="#030309" transform="translate(309.7900390625,272.7412109375)"/>
<path d="M0 0 C2.52683444 -0.00623483 5.05363005 -0.01611827 7.58044815 -0.02705765 C11.53329914 -0.0436291 15.48603494 -0.04987855 19.43891907 -0.04803467 C20.87149389 -0.04882422 22.30407168 -0.05288118 23.73662567 -0.06064606 C46.12939633 -0.17362155 46.12939633 -0.17362155 53.60568619 6.18122482 C62.44437414 15.3355802 59.85446559 33.70386706 59.66916275 45.53474045 C59.46399951 54.08846946 59.0353322 62.63629697 58.60568619 71.18122482 C60.0877858 71.14980392 60.0877858 71.14980392 61.59982681 71.11774826 C65.2972681 71.04485474 68.99464706 70.99924788 72.69260025 70.96149826 C74.28711027 70.94149429 75.88154797 70.91428182 77.47580338 70.87946701 C95.30054422 70.50021721 95.30054422 70.50021721 102.66427994 76.99763107 C103.119319 77.57384201 103.57435806 78.15005295 104.04318619 78.74372482 C104.51627213 79.32251389 104.98935806 79.90130295 105.47677994 80.49763107 C108.83511874 85.50608791 107.79168247 91.91540698 107.79098892 97.68781662 C107.79318206 99.73986472 107.81137109 101.7913807 107.83029556 103.8433342 C107.83222916 105.13175217 107.83416275 106.42017014 107.83615494 107.74763107 C107.84026382 108.93300461 107.84437271 110.11837814 107.84860611 111.33967209 C107.60568619 114.18122482 107.60568619 114.18122482 105.60568619 116.18122482 C105.56604752 115.33414963 105.52640884 114.48707443 105.485569 113.61433029 C105.32865803 110.44880314 105.15526286 107.28471703 104.97092056 104.12067795 C104.89471676 102.75546751 104.82494665 101.38988121 104.76193619 100.02399826 C104.66981774 98.05208776 104.55204222 96.08142957 104.43381119 94.11091232 C104.37096939 92.92739182 104.30812759 91.74387131 104.2433815 90.52448654 C103.29150092 85.53403757 100.52797742 81.42137845 96.60568619 78.18122482 C92.93612022 76.95803617 89.48247616 76.95006358 85.65646744 76.86481857 C84.49754234 76.83364693 84.49754234 76.83364693 83.31520462 76.80184555 C80.84962139 76.73651444 78.38393258 76.67754167 75.91818619 76.61872482 C74.24564927 76.57552396 72.57312299 76.53190916 70.90060806 76.48786545 C66.80240869 76.38084992 62.70410323 76.27953625 58.60568619 76.18122482 C58.5610524 76.85161789 58.51641861 77.52201096 58.47043228 78.21271896 C57.75970404 87.05510875 57.75970404 87.05510875 55.23068619 90.61872482 C54.60033463 91.54491623 54.60033463 91.54491623 53.95724869 92.48981857 C50.67882328 96.59258794 47.87130631 98.70954843 42.53190994 99.48075485 C36.07549211 100.14549063 29.69883461 100.32643863 23.21115494 100.31403732 C22.05593338 100.31540192 20.90071182 100.31676651 19.71048355 100.31817245 C16.43833046 100.31988308 13.16623471 100.31644315 9.89408875 100.30999756 C7.77322452 100.30618898 5.65236492 100.30413952 3.53149796 100.3025322 C-29.73164312 100.27338064 -62.99457733 100.02742212 -96.2567783 99.79095006 C-100.6959767 99.75944673 -105.13518018 99.72887846 -109.57439071 99.69913459 C-173.37484851 99.27131994 -173.37484851 99.27131994 -203.39431381 98.18122482 C-203.39431381 97.85122482 -203.39431381 97.52122482 -203.39431381 97.18122482 C-194.46326657 96.12797571 -185.55323072 95.85080292 -176.57253647 95.63190842 C-175.75287124 95.61101489 -174.93320601 95.59012136 -174.08870244 95.56859469 C-154.9126116 95.08713666 -135.73734595 95.01509189 -116.55612946 94.98199463 C-110.37485527 94.97102753 -104.19363038 94.95073335 -98.01238632 94.92887497 C-80.4712607 94.86783766 -62.93014596 94.81272432 -45.38894272 94.77985764 C-35.62396408 94.76148513 -25.85907628 94.73255616 -16.09416449 94.69185293 C-10.95902679 94.67090624 -5.82400255 94.65534246 -0.68881989 94.65304565 C4.11664729 94.6508914 8.92187433 94.6349434 13.72726822 94.60865593 C15.47993392 94.60150372 17.23262882 94.59934199 18.98530579 94.60275841 C34.89919339 95.22900908 34.89919339 95.22900908 48.86271477 89.19847679 C51.89612747 85.68771484 51.74042015 83.39055607 51.766819 78.80720139 C51.77178391 78.15330429 51.77674881 77.4994072 51.78186417 76.82569504 C51.79649367 74.65773598 51.80329025 72.48985018 51.80881119 70.32184982 C51.81456349 68.81450524 51.82032122 67.30716068 51.82608414 65.79981613 C51.83659739 62.63560775 51.84243743 59.47142478 51.84592056 56.30720139 C51.85139569 52.26088157 51.87540099 48.2148999 51.90389252 44.16868591 C51.92255961 41.0527767 51.92772673 37.9369481 51.92925644 34.8209877 C51.93227604 33.32990553 51.94028118 31.83882454 51.95344162 30.34779739 C51.97058249 28.25588293 51.96860252 26.16478345 51.9621315 24.07282639 C51.96577713 22.88416977 51.96942276 21.69551315 51.97317886 20.47083664 C51.46228287 15.89754962 50.0368099 12.47818069 46.60568619 9.36872482 C42.79478127 7.10600003 39.61486062 7.03876878 35.27023697 6.9917717 C34.62422688 6.98345573 33.9782168 6.97513977 33.31263065 6.96657181 C31.14211387 6.93979558 28.97158823 6.91991608 26.80099869 6.89997482 C25.24472449 6.88216667 23.68845517 6.86392677 22.1321907 6.84528732 C18.7699765 6.80593942 15.40774776 6.76964329 12.04547501 6.73566818 C6.68177845 6.68141953 1.31817402 6.62025182 -4.04543686 6.55817795 C-12.58598644 6.46013832 -21.12657825 6.36658122 -29.66719913 6.27498245 C-46.60567485 6.09331526 -63.54408242 5.90555928 -80.4824295 5.71227264 C-82.29844068 5.69157689 -84.11445274 5.6709597 -85.9304657 5.65042114 C-112.75677836 5.34692577 -139.57686579 4.96485973 -166.39431381 4.18122482 C-166.39431381 3.52122482 -166.39431381 2.86122482 -166.39431381 2.18122482 C-140.62543659 1.34095721 -114.86252614 0.88752558 -89.08181381 0.61872482 C-87.14096695 0.59801327 -85.20012019 0.57729172 -83.25927353 0.55656052 C-55.50679134 0.26348444 -27.75402117 0.05393505 0 0 Z " fill="#05050C" transform="translate(337.39431381225586,40.81877517700195)"/>
<path d="M0 0 C-0.30201509 1.92670435 -0.60935352 3.85257476 -0.91894531 5.77807617 C-1.17481415 7.38690926 -1.17481415 7.38690926 -1.43585205 9.02824402 C-3.21582161 18.40457022 -8.89162379 27.2413023 -16.54296875 32.87109375 C-25.39415164 38.74339578 -32.59743625 41.57738174 -43.25 41.5 C-44.17659424 41.49355469 -45.10318848 41.48710937 -46.05786133 41.48046875 C-58.20033815 41.15743445 -67.38801327 36.55058219 -76 28 C-81.13966018 21.68680219 -84.84432724 14.96686038 -85.57421875 6.77734375 C-85.65631592 5.88136475 -85.73841309 4.98538574 -85.82299805 4.06225586 C-85.88140869 3.38171143 -85.93981934 2.70116699 -86 2 C-78.47853034 1.73407677 -70.95690226 1.47306711 -63.43506718 1.21769714 C-59.93929475 1.09887291 -56.44358756 0.97858979 -52.94799805 0.85449219 C-35.29503809 0.22903233 -17.66626024 -0.15695964 0 0 Z " fill="#FC3A12" transform="translate(478,201)"/>
<path d="M0 0 C-1.57542643 13.30482901 -6.17730995 24.68555652 -16.7109375 33.4296875 C-28.450382 41.48302656 -41.37303608 42.55003924 -55.16015625 40.5390625 C-65.3485319 37.79417524 -75.10603035 30.4158706 -80.57421875 21.40625 C-84.10091316 14.53475373 -85.04594985 9.65185882 -85 2 C-77.31358326 1.73459986 -69.62702967 1.47359518 -61.9402914 1.21769714 C-58.36824344 1.09865315 -54.79625216 0.97828126 -51.22436523 0.85449219 C-34.14566756 0.26365751 -17.09169727 -0.15443336 0 0 Z " fill="#FD3A12" transform="translate(300,201)"/>
<path d="M0 0 C-1.13639178 12.14763632 -4.46625364 22.79224472 -13.6640625 31.25 C-25.3749744 40.02339219 -38.69956072 42.61057336 -53 41 C-64.00327992 38.38072827 -73.24886148 32.49380851 -79.71484375 23.1640625 C-82.98011016 17.66571117 -85.10330992 12.76793236 -85.04150391 6.32592773 C-85.03551178 5.51574692 -85.02951965 4.7055661 -85.02334595 3.87083435 C-85.01564178 3.25345901 -85.00793762 2.63608368 -85 2 C-83.8126123 1.97494385 -82.62522461 1.9498877 -81.40185547 1.92407227 C-75.89283038 1.80681791 -70.38389809 1.68556916 -64.875 1.5625 C-63.88571503 1.54043488 -62.89643005 1.51836975 -61.87716675 1.49563599 C-50.27492313 1.23350452 -38.68653278 0.91989936 -27.09667969 0.30712891 C-18.06669526 -0.1464066 -9.03859371 -0.08822922 0 0 Z " fill="#FDFDFD" transform="translate(211,201)"/>
<path d="M0 0 C-0.14797204 1.44300087 -0.29944256 2.88564328 -0.45239258 4.328125 C-0.57835564 5.5332373 -0.57835564 5.5332373 -0.7068634 6.76269531 C-2.01606637 16.75491724 -8.22228696 25.92928251 -15.75 32.3125 C-27.3229645 41.08837338 -39.95853617 42.09852361 -54 41 C-64.61789002 38.8186018 -73.8422343 30.66885457 -80 22 C-83.68653167 15.20961036 -85.05715275 9.72122418 -85 2 C-77.31358326 1.73459986 -69.62702967 1.47359518 -61.9402914 1.21769714 C-58.36824344 1.09865315 -54.79625216 0.97828126 -51.22436523 0.85449219 C-34.14566756 0.26365751 -17.09169727 -0.15443336 0 0 Z " fill="#FC3A12" transform="translate(122,201)"/>
<path d="M0 0 C-1.45303851 12.5004758 -5.48873949 23.63945449 -15.3203125 31.96484375 C-17.80853977 33.80956396 -20.3290198 35.43313319 -23 37 C-23.72445312 37.43570313 -24.44890625 37.87140625 -25.1953125 38.3203125 C-34.43360019 42.92336177 -47.64394653 42.4646932 -57.5 39.9375 C-68.47256955 35.80844944 -77.17245107 28.78521283 -82.37890625 18.1953125 C-84.64497402 12.49461239 -85.05894904 8.07252694 -85 2 C-76.42759392 1.73617982 -67.85510726 1.47521627 -59.2825098 1.21769714 C-55.30003229 1.0979788 -51.31758705 0.97735104 -47.33520508 0.85449219 C-43.47729958 0.73550955 -39.6193232 0.61911502 -35.7612896 0.50436401 C-34.30441037 0.46060527 -32.84755678 0.41598207 -31.39073372 0.37039185 C-20.92405706 0.0436655 -10.47162735 -0.05133575 0 0 Z " fill="#FDFDFD" transform="translate(389,201)"/>
<path d="M0 0 C8.84924212 -0.39701484 17.69534661 -0.69743569 26.55160522 -0.88080692 C30.66622068 -0.96890831 34.77467532 -1.08791828 38.88574219 -1.2824707 C67.6102439 -2.60613557 67.6102439 -2.60613557 75.50390625 3.5456543 C79.05650934 7.00197188 81.91053147 10.81330181 84.61425781 14.95639038 C86.46040051 17.67897111 88.66326273 19.85112922 91.0625 22.08984375 C91.7328125 22.74791016 92.403125 23.40597656 93.09375 24.08398438 C94.4259956 25.37937482 95.75942562 26.67354778 97.09375 27.96679688 C97.7434375 28.60552734 98.393125 29.24425781 99.0625 29.90234375 C99.63097656 30.45398193 100.19945312 31.00562012 100.78515625 31.57397461 C102 33 102 33 102 35 C73.30711636 35.4615858 44.66351767 34.15799969 16 33 C15.71605377 32.42883453 15.43210754 31.85766907 15.13955688 31.26919556 C13.83657712 28.65014292 12.53158535 26.03209767 11.2265625 23.4140625 C10.77998291 22.5156665 10.33340332 21.61727051 9.87329102 20.69165039 C7.0384238 15.00892389 4.11015904 9.41392495 0.9609375 3.8984375 C0 2 0 2 0 0 Z " fill="#FA3A12" transform="translate(374,164)"/>
<path d="M0 0 C1.25908676 0.00222061 2.51817352 0.00444122 3.81541443 0.00672913 C4.50806396 0.0065831 5.2007135 0.00643707 5.91435242 0.00628662 C8.21400537 0.00698577 10.51357828 0.01477823 12.81321716 0.02259827 C14.40362504 0.02446244 15.99403349 0.02588635 17.58444214 0.02688599 C21.77827021 0.03071123 25.97206386 0.04054156 30.1658783 0.05158997 C34.44220006 0.06180395 38.71852736 0.06638358 42.99485779 0.07142639 C51.39135799 0.08216383 59.78783017 0.09924032 68.18431091 0.12025452 C68.90436175 3.97827158 69.61611962 7.83772153 70.32054138 11.69862366 C70.67839824 13.65050464 71.04262984 15.60121341 71.40696716 17.55189514 C71.6325531 18.7926178 71.85813904 20.03334045 72.09056091 21.31166077 C72.30003357 22.44804993 72.50950623 23.58443909 72.72532654 24.75526428 C73.20219354 28.25135892 73.26266576 31.59624529 73.18431091 35.12025452 C56.46527833 35.30159985 39.77642881 34.76654964 23.07017517 34.19313049 C19.46246864 34.07003506 15.85463445 33.95080003 12.24681091 33.83119202 C5.22585176 33.59788495 -1.79496241 33.3604642 -8.81568909 33.12025452 C-7.8391557 21.51365481 -7.8391557 21.51365481 -6.87818909 16.48744202 C-6.70545471 15.57994202 -6.53272034 14.67244202 -6.35475159 13.73744202 C-6.17686096 12.83252014 -5.99897034 11.92759827 -5.81568909 10.99525452 C-5.63779846 10.05166077 -5.45990784 9.10806702 -5.27662659 8.13587952 C-3.73653469 0.15958267 -3.73653469 0.15958267 0 0 Z " fill="#FC3A12" transform="translate(223.81568908691406,163.87974548339844)"/>
<path d="M0 0 C1.01058975 -0.0010952 1.01058975 -0.0010952 2.04159546 -0.00221252 C4.25537312 0.0012546 6.4670127 0.04006723 8.68041992 0.0793457 C10.2202591 0.08867711 11.76011317 0.09579168 13.29997253 0.1007843 C17.34289907 0.11982876 21.38492019 0.16890602 25.42749023 0.2243042 C29.55659742 0.2755527 33.68585165 0.2983102 37.81518555 0.32348633 C45.91000101 0.37702859 54.00408205 0.46230883 62.09838867 0.56762695 C60.68238545 4.94373216 59.02920391 8.90192913 56.91088867 12.98950195 C56.60771729 13.57556213 56.3045459 14.16162231 55.9921875 14.76544189 C55.35556587 15.99341702 54.71678213 17.22027347 54.07592773 18.44604492 C53.0954434 20.32326592 52.12383988 22.20489537 51.15307617 24.0871582 C50.53120278 25.28404438 49.90882468 26.48066849 49.28588867 27.67700195 C48.72256836 28.75949219 48.15924805 29.84198242 47.57885742 30.95727539 C46.09838867 33.56762695 46.09838867 33.56762695 44.09838867 35.56762695 C41.53617768 35.72596248 39.08732744 35.76003188 36.52758789 35.70288086 C35.74701019 35.69341934 34.9664325 35.68395782 34.16220093 35.67420959 C31.57559119 35.64046334 28.98945409 35.5923674 26.40307617 35.54418945 C24.61232752 35.51802937 22.82156562 35.4927618 21.03079224 35.46835327 C16.31239087 35.4016332 11.59426722 35.32275551 6.87609863 35.24139404 C2.06358519 35.16054123 -2.74909142 35.0911193 -7.56176758 35.02075195 C-17.00857778 34.88093423 -26.4551341 34.72827971 -35.90161133 34.56762695 C-34.56941175 31.81360151 -33.30410744 29.70967013 -31.17895508 27.5012207 C-30.37748047 26.65708618 -30.37748047 26.65708618 -29.55981445 25.79589844 C-28.99198242 25.20494385 -28.42415039 24.61398926 -27.83911133 24.00512695 C-22.94004959 18.83005218 -18.31710903 13.56695899 -13.90161133 7.9699707 C-7.21156958 -0.06591928 -7.21156958 -0.06591928 0 0 Z " fill="#FB3A12" transform="translate(75.901611328125,163.432373046875)"/>
<path d="M0 0 C9.02280751 -0.23199611 18.04458481 -0.40952206 27.06972694 -0.51812172 C31.26093704 -0.57025417 35.45010324 -0.64091275 39.64013672 -0.75439453 C43.68629273 -0.86329007 47.73048761 -0.9228859 51.77799606 -0.94877243 C53.31961329 -0.96721032 54.86112632 -1.00322188 56.40190506 -1.05730057 C61.06891942 -1.214546 65.45087638 -1.22206055 70 0 C73.10150031 2.93439167 74.49406148 6.05320317 76 10 C76.5882959 11.06089844 77.1765918 12.12179688 77.78271484 13.21484375 C79.31772019 16.14106248 80.85074583 19.06816297 82.375 22 C82.92027344 23.03511719 83.46554687 24.07023437 84.02734375 25.13671875 C84.54167969 26.12285156 85.05601562 27.10898438 85.5859375 28.125 C86.0504834 29.01445312 86.5150293 29.90390625 86.99365234 30.8203125 C88 33 88 33 88 35 C77.25060669 35.05643196 66.52551701 34.90277729 55.78125 34.5625 C54.30196769 34.51744801 52.82267879 34.47261194 51.34338379 34.42797852 C47.50975873 34.31174604 43.67622838 34.19264504 39.8427124 34.07287598 C35.90691494 33.95044307 31.97103207 33.83082048 28.03515625 33.7109375 C20.35668623 33.47665616 12.67831437 33.23933408 5 33 C4.28591784 28.62206864 3.57388718 24.24381012 2.86376953 19.86523438 C2.621823 18.37523342 2.3793126 16.88532392 2.13623047 15.39550781 C1.78725859 13.25609656 1.44030496 11.11636641 1.09375 8.9765625 C0.88427734 7.68830566 0.67480469 6.40004883 0.45898438 5.07275391 C0 2 0 2 0 0 Z " fill="#FCFCFC" transform="translate(297,164)"/>
<path d="M0 0 C1.24132187 0.00222061 2.48264374 0.00444122 3.76158142 0.00672913 C4.44447739 0.0065831 5.12737335 0.00643707 5.83096313 0.00628662 C8.09815092 0.00698575 10.36525752 0.01477811 12.63243103 0.02259827 C14.20041865 0.02446245 15.76840685 0.02588635 17.33639526 0.02688599 C21.47103981 0.03071117 25.60564944 0.04054146 29.74028015 0.05158997 C33.95627876 0.06180407 38.172283 0.0663836 42.38829041 0.07142639 C50.66630125 0.08216373 58.94428368 0.09924015 67.22227478 0.12025452 C67.08737137 0.99696808 66.95246796 1.87368164 66.81347656 2.77696228 C66.54608925 4.51479477 66.54608925 4.51479477 66.27330017 6.28773499 C66.09714676 7.43257355 65.92099335 8.57741211 65.73950195 9.75694275 C65.41663104 11.85643714 65.09405989 13.95597769 64.77194214 16.05558777 C64.40402381 18.45258539 64.03222557 20.84895739 63.65977478 23.24525452 C63.53409119 24.06767639 63.40840759 24.89009827 63.27891541 25.73744202 C63.15580994 26.52634827 63.03270447 27.31525452 62.90586853 28.12806702 C62.79815125 28.82561096 62.69043396 29.52315491 62.57945251 30.24183655 C62.22227478 32.12025452 62.22227478 32.12025452 61.22227478 35.12025452 C54.05717789 35.01093099 46.89214638 34.89800136 39.7271719 34.78091526 C36.3973545 34.726605 33.06752975 34.67372246 29.73765564 34.62294006 C13.21682194 34.37011793 -3.27519217 33.94919531 -19.77772522 33.12025452 C-18.44093375 28.75105928 -16.7302478 24.89671784 -14.55506897 20.88197327 C-13.93438538 19.73277405 -13.31370178 18.58357483 -12.67420959 17.39955139 C-12.3528302 16.81036926 -12.03145081 16.22118713 -11.70033264 15.614151 C-10.70989233 13.79797557 -9.72665614 11.97804227 -8.74452209 10.15736389 C-3.31686749 0.1435953 -3.31686749 0.1435953 0 0 Z " fill="#FCFCFC" transform="translate(147.77772521972656,163.87974548339844)"/>
<path d="M0 0 C15.84 0 31.68 0 48 0 C48.4375 16 48.4375 16 48.56811523 20.9375 C48.60639154 22.2916728 48.6448724 23.64583985 48.68359375 25 C48.70006958 25.65226562 48.71654541 26.30453125 48.73352051 26.9765625 C48.95912374 34.67138897 49.51884812 42.30156997 50 50 C33.17 50 16.34 50 -1 50 C-0.67 33.5 -0.34 17 0 0 Z " fill="#A8A5A5" transform="translate(155,344)"/>
<path d="M0 0 C14.19 0 28.38 0 43 0 C43 16.83 43 33.66 43 51 C28.375 51 28.375 51 22.38671875 50.78125 C21.12021484 50.73613281 19.85371094 50.69101562 18.54882812 50.64453125 C17.27458984 50.59683594 16.00035156 50.54914063 14.6875 50.5 C13.34961708 50.45160953 12.01172645 50.40343145 10.67382812 50.35546875 C7.44913725 50.23905392 4.22453917 50.12053154 1 50 C0.85435578 45.45094217 0.71213289 40.90179317 0.57275391 36.35253906 C0.52513634 34.8127979 0.47666724 33.27308277 0.42724609 31.73339844 C0.35536666 29.48899978 0.28680685 27.24451749 0.21875 25 C0.19687622 24.33887207 0.17500244 23.67774414 0.15246582 22.99658203 C-0.07358016 15.32466348 0 7.68741391 0 0 Z " fill="#A9A6A6" transform="translate(207,289)"/>
<path d="M0 0 C0 16.83 0 33.66 0 51 C-14.52 51 -29.04 51 -44 51 C-43.67 48.36 -43.34 45.72 -43 43 C-42.90182487 41.41367014 -42.82858939 39.8253312 -42.79467773 38.23632812 C-42.77473251 37.39606079 -42.75478729 36.55579346 -42.73423767 35.69006348 C-42.70916893 34.37395081 -42.70916893 34.37395081 -42.68359375 33.03125 C-42.66281265 32.11033569 -42.64203156 31.18942139 -42.62062073 30.24060059 C-42.55574882 27.32713575 -42.49653318 24.41358839 -42.4375 21.5 C-42.39425533 19.51301263 -42.35063924 17.52603331 -42.30664062 15.5390625 C-42.20013228 10.6927908 -42.09869316 5.8464369 -42 1 C-38.18775355 0.82719654 -34.37517756 0.66299141 -30.5625 0.5 C-29.51255859 0.45230469 -28.46261719 0.40460938 -27.38085938 0.35546875 C-18.2279965 -0.0293363 -9.18745698 0 0 0 Z " fill="#A9A6A6" transform="translate(250,343)"/>
<path d="M0 0 C0.85142075 -0.00350464 1.70284149 -0.00700928 2.58006287 -0.01062012 C5.37865495 -0.01938044 8.17699152 -0.01360634 10.97558594 -0.00683594 C12.93463184 -0.00818472 14.89367741 -0.01012703 16.85272217 -0.01263428 C20.95474439 -0.01557826 25.05667935 -0.0113131 29.15869141 -0.00195312 C34.39144004 0.00941073 39.62398279 0.00289676 44.85672379 -0.00909805 C48.90272542 -0.01636208 52.94867914 -0.01400744 56.99468231 -0.00884247 C58.92260513 -0.00751694 60.85053243 -0.00911485 62.77845001 -0.01380157 C90.00735357 -0.06545156 90.00735357 -0.06545156 97.20996094 6.25878906 C102.39727988 11.9351483 101.75709279 17.80450513 101.67993164 25.20214844 C101.68321724 27.15945892 101.68321724 27.15945892 101.68656921 29.15631104 C101.69197801 32.72723463 101.6725977 36.29763713 101.64846826 39.86846733 C101.62709716 43.62018039 101.62776334 47.37189298 101.6257782 51.12365723 C101.61933315 57.43181244 101.5981092 63.73977362 101.56665039 70.04785156 C101.52651119 78.10632356 101.50897954 86.16466862 101.49934101 94.22322845 C101.49098456 101.18833083 101.47376143 108.15340716 101.4543035 115.1184864 C101.45027356 116.60382577 101.4465312 118.08916594 101.44308114 119.57450676 C101.43165682 124.47648362 101.41138608 129.3783436 101.38696289 134.28027344 C101.38427399 135.49221375 101.38158508 136.70415405 101.3788147 137.95281982 C101.32840535 146.0891225 100.88020001 154.15051169 100.20996094 162.25878906 C99.54996094 161.92878906 98.88996094 161.59878906 98.20996094 161.25878906 C97.29896369 141.97013057 97.09827308 122.69095049 96.99902344 103.38378906 C96.98469854 100.84798121 96.9702731 98.31217391 96.95574951 95.77636719 C96.89712013 85.24986769 96.84129281 74.72339163 96.80859375 64.19677734 C96.78828269 57.68469269 96.75246214 51.17279118 96.70783615 44.66082764 C96.69370813 42.1984912 96.68496097 39.73611759 96.68178177 37.27374268 C96.67688562 33.85576813 96.65377772 30.43836624 96.62646484 27.02050781 C96.62947098 26.01387589 96.63247711 25.00724396 96.63557434 23.97010803 C96.57348143 18.75032914 96.48588565 14.56887773 93.20996094 10.25878906 C87.75588049 6.9892036 82.85514938 6.82710856 76.60620117 6.87060547 C75.6687204 6.86534851 74.73123962 6.86009155 73.76535034 6.85467529 C70.682913 6.84152855 67.6009968 6.85019389 64.51855469 6.86035156 C62.36816815 6.85832947 60.21778227 6.8554169 58.06739807 6.85165405 C53.56773326 6.84723805 49.06824747 6.85363918 44.56860352 6.86767578 C38.80617513 6.88477739 33.04416566 6.87491551 27.28175259 6.85695839 C22.84390617 6.84610987 18.40615883 6.84957166 13.9683094 6.85734177 C11.84366875 6.85934027 9.71901904 6.85689679 7.59438896 6.84990311 C4.62412607 6.84227005 1.65453884 6.8539187 -1.31567383 6.87060547 C-2.62735283 6.86149643 -2.62735283 6.86149643 -3.9655304 6.85220337 C-8.93300363 6.90380837 -12.61163883 7.2791833 -16.79003906 10.25878906 C-19.78009045 14.67319588 -20.16969404 18.29998346 -20.19067383 23.55932617 C-20.19769538 24.26974469 -20.20471693 24.98016321 -20.21195126 25.71210957 C-20.23206124 28.07024273 -20.23154854 30.42792111 -20.23144531 32.78613281 C-20.2426349 34.46825176 -20.25532371 36.15036131 -20.26940918 37.8324585 C-20.29721212 41.42048428 -20.31675171 45.00841688 -20.32962036 48.5965271 C-20.360992 57.04923697 -20.43655331 65.50157814 -20.51394463 73.95397377 C-20.5313844 75.85985208 -20.54835621 77.76573474 -20.56486702 79.67162132 C-20.80753881 107.2220322 -21.80894451 134.72273541 -22.79003906 162.25878906 C6.57996094 162.25878906 35.94996094 162.25878906 66.20996094 162.25878906 C66.20996094 162.58878906 66.20996094 162.91878906 66.20996094 163.25878906 C36.50996094 163.25878906 6.80996094 163.25878906 -23.79003906 163.25878906 C-24.535836 159.52980438 -24.93284387 156.59510183 -24.99536133 152.87036133 C-25.01527634 151.79827927 -25.03519135 150.7261972 -25.05570984 149.62162781 C-25.07245255 148.45130508 -25.08919525 147.28098236 -25.10644531 146.07519531 C-25.12749832 144.82797195 -25.14855133 143.5807486 -25.17024231 142.29573059 C-25.23757608 138.1376518 -25.29659527 133.97953276 -25.35253906 129.82128906 C-25.36229012 129.1099305 -25.37204117 128.39857193 -25.38208771 127.66565704 C-25.51996012 117.56080729 -25.63351981 107.45578234 -25.73675537 97.3505249 C-25.77227607 93.89740666 -25.81059494 90.4443349 -25.85113525 86.99127197 C-25.96617847 77.15444011 -26.06313226 67.31787935 -26.11666965 57.48050022 C-26.14049795 53.1324557 -26.17231258 48.78484556 -26.22463989 44.43704224 C-26.27354754 40.32107649 -26.29789943 36.20566714 -26.30393028 32.08942223 C-26.31020455 30.57302465 -26.32500661 29.05663395 -26.34910011 27.54041481 C-26.47277571 19.39576733 -26.54540498 12.58167057 -20.79003906 6.25878906 C-14.92817714 0.39692714 -7.86029374 -0.04029301 0 0 Z " fill="#160907" transform="translate(309.7900390625,272.7412109375)"/>
<path d="M0 0 C2.42540668 -0.007479 4.85080574 -0.01813584 7.27618408 -0.03204346 C10.63977212 -0.04972249 14.00310111 -0.05406923 17.36672974 -0.05422974 C18.36183563 -0.06136993 19.35694153 -0.06851013 20.38220215 -0.0758667 C21.7511412 -0.07131973 21.7511412 -0.07131973 23.1477356 -0.06668091 C23.93796616 -0.06810593 24.72819672 -0.06953094 25.54237366 -0.07099915 C27.98047485 0.20652766 29.56099286 1.03898868 31.71438599 2.17623901 C31.73771593 16.89233466 31.75536563 31.60842787 31.76619816 46.32453823 C31.77136091 53.15702875 31.77840322 59.98950781 31.78982544 66.82199097 C31.80083306 73.40959206 31.80666222 79.99718432 31.80926323 86.584795 C31.81111799 89.1043218 31.81473956 91.62384792 31.82011604 94.14336967 C31.82732274 97.65881666 31.82837708 101.17421362 31.82791138 104.68966675 C31.83150665 105.74270493 31.83510193 106.7957431 31.83880615 107.88069153 C31.83743149 108.8328656 31.83605682 109.78503967 31.8346405 110.7660675 C31.83602319 112.0146361 31.83602319 112.0146361 31.83743382 113.28842831 C31.71438599 115.17623901 31.71438599 115.17623901 30.71438599 116.17623901 C28.1225135 116.27689684 25.55728493 116.31239975 22.96487427 116.30563354 C22.14840864 116.30736037 21.33194302 116.3090872 20.49073601 116.31086636 C17.75537023 116.31524361 15.02006516 116.31225808 12.28469849 116.30905151 C10.36038188 116.31010777 8.43606542 116.31149205 6.51174927 116.31318665 C1.35309958 116.31599604 -3.80551932 116.31160131 -8.96416473 116.30501175 C-12.14636778 116.30125583 -15.32856792 116.29918012 -18.51077271 116.29754639 C-43.06303609 116.28262404 -67.61252296 116.22863112 -92.16061401 115.73873901 C-93.19184387 115.71918152 -94.22307373 115.69962402 -95.28555298 115.67947388 C-98.11648891 115.62349833 -100.94712126 115.56022642 -103.77780151 115.49264526 C-104.57033325 115.4759227 -105.36286499 115.45920013 -106.17941284 115.44197083 C-110.29884438 115.32902879 -114.23954881 114.96344082 -118.28561401 114.17623901 C-118.28561401 113.84623901 -118.28561401 113.51623901 -118.28561401 113.17623901 C-112.73926093 112.39683772 -107.35064996 112.01386525 -101.75387573 111.97091675 C-100.93823749 111.96101998 -100.12259924 111.95112322 -99.28224468 111.94092655 C-96.59329231 111.90947148 -93.90432352 111.88455901 -91.21530151 111.85983276 C-89.30936822 111.83913656 -87.40343867 111.81809265 -85.49751282 111.79672241 C-80.42819208 111.74121601 -75.35882982 111.69174923 -70.28943253 111.64381027 C-67.16520898 111.61378318 -64.0410086 111.58198598 -60.91680908 111.54956055 C-31.7043157 111.24670352 -2.50003817 111.07077178 26.71438599 111.17623901 C26.71438599 94.01623901 26.71438599 76.85623901 26.71438599 59.17623901 C26.05438599 58.84623901 25.39438599 58.51623901 24.71438599 58.17623901 C25.37438599 58.17623901 26.03438599 58.17623901 26.71438599 58.17623901 C26.71438599 40.68623901 26.71438599 23.19623901 26.71438599 5.17623901 C13.70903442 5.19364136 13.70903442 5.19364136 0.44094849 5.21139526 C-5.78611409 5.21716202 -12.01317463 5.22228695 -18.24023819 5.22649288 C-26.28564299 5.23201159 -34.33103729 5.23899255 -42.37643433 5.25167847 C-48.75127884 5.26172538 -55.12611541 5.26811595 -61.50096762 5.27032751 C-64.86845144 5.27161783 -68.2358947 5.27514095 -71.60337448 5.28196907 C-85.86624029 5.30971463 -100.05648795 5.22197299 -114.28561401 4.17623901 C-111.29302804 2.46733947 -109.04697595 1.90008048 -105.61398315 1.7819519 C-104.68677963 1.7461351 -103.75957611 1.7103183 -102.80427551 1.67341614 C-101.79909378 1.64469925 -100.79391205 1.61598236 -99.75827026 1.58639526 C-98.6972963 1.54958145 -97.63632233 1.51276764 -96.54319763 1.47483826 C-83.93964915 1.05831122 -71.3316447 0.81632652 -58.72311401 0.61373901 C-57.47343842 0.59322479 -56.22376282 0.57271057 -54.93621826 0.55157471 C-36.6249548 0.25710231 -18.31362254 0.05162074 0 0 Z " fill="#090909" transform="translate(224.28561401367188,282.8237609863281)"/>
<path d="M0 0 C3.56609084 2.45119326 5.41158928 5.16054909 6.76171875 9.2109375 C6.91052808 11.99538905 6.99278875 14.73836135 7.01171875 17.5234375 C7.03234375 18.27044922 7.05296875 19.01746094 7.07421875 19.78710938 C7.11753589 25.95438762 5.89640909 29.98745588 1.5078125 34.55859375 C-1.93807978 36.63201115 -4.17503151 36.71359629 -8.17578125 36.6484375 C-9.95275391 36.64650391 -9.95275391 36.64650391 -11.765625 36.64453125 C-16.22882366 36.08725898 -19.57142855 34.76693063 -22.8828125 31.67578125 C-26.74975487 26.61901045 -27.44335353 23.72835497 -27.48828125 17.4609375 C-27.50890625 16.75710937 -27.52953125 16.05328125 -27.55078125 15.328125 C-27.58631018 10.5494843 -26.82505162 7.36957312 -24.23828125 3.2109375 C-16.95256041 -3.69132435 -8.71899413 -4.83056257 0 0 Z " fill="#F7F7FF" transform="translate(253.23828125,72.7890625)"/>
<path d="M0 0 C3.155625 -0.061875 6.31125 -0.12375 9.5625 -0.1875 C10.5429126 -0.21481201 11.5233252 -0.24212402 12.53344727 -0.27026367 C19.33360542 -0.33438359 24.27034045 0.48031426 29.4375 5.25 C31.46688034 8.82170941 31.49856686 10.94024128 31 15 C29.42275698 18.98066095 28.58999089 20.60667274 25 23 C26.52309387 27.29235546 28.69562115 31.08929071 30.9765625 35.01171875 C32 37 32 37 32 39 C28.87454391 39.49026762 26.10619235 39.67752518 23 39 C19.15914024 35.32374851 17.38392533 30.03245574 16 25 C13.69 25 11.38 25 9 25 C9 29.62 9 34.24 9 39 C6.03 39 3.06 39 0 39 C0 26.13 0 13.26 0 0 Z " fill="#FAFAFF" transform="translate(267,71)"/>
<path d="M0 0 C3.0649531 1.65481712 4.67351055 3.28760957 6.609375 6.19140625 C6.609375 7.51140625 6.609375 8.83140625 6.609375 10.19140625 C5.17281646 10.27272088 3.7349267 10.33074184 2.296875 10.37890625 C1.49636719 10.41371094 0.69585937 10.44851562 -0.12890625 10.484375 C-2.93359991 10.12107271 -3.44470845 9.1373228 -5.390625 7.19140625 C-7.67392601 6.82994168 -7.67392601 6.82994168 -10.078125 7.00390625 C-10.88636719 7.03097656 -11.69460937 7.05804688 -12.52734375 7.0859375 C-13.44966797 7.13814453 -13.44966797 7.13814453 -14.390625 7.19140625 C-14.060625 8.84140625 -13.730625 10.49140625 -13.390625 12.19140625 C-12.37742188 12.49433594 -11.36421875 12.79726562 -10.3203125 13.109375 C-8.96851811 13.53181075 -7.61696834 13.95502983 -6.265625 14.37890625 C-5.60046875 14.57548828 -4.9353125 14.77207031 -4.25 14.97460938 C0.67211615 16.5429307 3.95860643 18.49577417 7.609375 22.19140625 C8.84037064 25.86352883 7.8948296 29.35407275 6.671875 32.94140625 C2.57104913 37.41503447 -2.94454289 39.38941512 -8.953125 39.69140625 C-14.65421107 39.41184336 -19.31228318 37.20479989 -23.390625 33.25390625 C-24.60302718 30.75332676 -24.6194083 28.93680581 -24.390625 26.19140625 C-18.43359375 25.80078125 -18.43359375 25.80078125 -16.390625 26.19140625 C-15.91625 26.85140625 -15.441875 27.51140625 -14.953125 28.19140625 C-13.5508232 30.45539646 -13.5508232 30.45539646 -10.91015625 30.58203125 C-10.01683594 30.535625 -9.12351563 30.48921875 -8.203125 30.44140625 C-6.85154297 30.38726562 -6.85154297 30.38726562 -5.47265625 30.33203125 C-4.78558594 30.285625 -4.09851563 30.23921875 -3.390625 30.19140625 C-3.060625 28.54140625 -2.730625 26.89140625 -2.390625 25.19140625 C-3.41542969 24.876875 -4.44023437 24.56234375 -5.49609375 24.23828125 C-6.85695213 23.80656066 -8.21761927 23.37423691 -9.578125 22.94140625 C-10.25166016 22.73644531 -10.92519531 22.53148438 -11.61914062 22.3203125 C-15.91822572 20.93621681 -19.03988883 19.34652505 -22.390625 16.19140625 C-24.16752252 12.6376112 -24.12805426 9.05320684 -23.390625 5.19140625 C-18.87428462 -2.93470984 -7.87713265 -2.66432428 0 0 Z " fill="#F8F8FF" transform="translate(180.390625,71.80859375)"/>
<path d="M0 0 C6.6515625 -0.0309375 6.6515625 -0.0309375 13.4375 -0.0625 C14.83798584 -0.071604 16.23847168 -0.08070801 17.68139648 -0.09008789 C19.32217163 -0.09383423 19.32217163 -0.09383423 20.99609375 -0.09765625 C22.12200928 -0.10289307 23.2479248 -0.10812988 24.40795898 -0.11352539 C27 0 27 0 28 1 C28 2.98 28 4.96 28 7 C21.4 7 14.8 7 8 7 C8 9.97 8 12.94 8 16 C9.28777344 15.98839844 10.57554687 15.97679688 11.90234375 15.96484375 C13.58072772 15.9554673 15.25911326 15.94636695 16.9375 15.9375 C18.21270508 15.92493164 18.21270508 15.92493164 19.51367188 15.91210938 C20.32255859 15.90888672 21.13144531 15.90566406 21.96484375 15.90234375 C22.7137085 15.89710693 23.46257324 15.89187012 24.23413086 15.88647461 C26 16 26 16 27 17 C27.125 19.5 27.125 19.5 27 22 C26 23 26 23 24.23413086 23.11352539 C23.48526611 23.10828857 22.73640137 23.10305176 21.96484375 23.09765625 C21.15595703 23.09443359 20.34707031 23.09121094 19.51367188 23.08789062 C18.66353516 23.07951172 17.81339844 23.07113281 16.9375 23.0625 C16.08349609 23.05798828 15.22949219 23.05347656 14.34960938 23.04882812 C12.23304337 23.03700373 10.11651315 23.01906769 8 23 C8 25.97 8 28.94 8 32 C14.6 32 21.2 32 28 32 C28 34.31 28 36.62 28 39 C18.76 39 9.52 39 0 39 C0 26.13 0 13.26 0 0 Z " fill="#FEFEFF" transform="translate(305,71)"/>
<path d="M0 0 C4.39656173 -0.02465504 8.7930872 -0.04283842 13.18969727 -0.05493164 C14.68644918 -0.05997121 16.18319616 -0.06680287 17.67993164 -0.07543945 C19.82699807 -0.08752159 21.97399962 -0.09323191 24.12109375 -0.09765625 C26.06133423 -0.10551147 26.06133423 -0.10551147 28.04077148 -0.11352539 C31 0 31 0 32 1 C32.125 4 32.125 4 32 7 C31.67 7.33 31.34 7.66 31 8 C27.37 8 23.74 8 20 8 C20 18.23 20 28.46 20 39 C17.03 39 14.06 39 11 39 C11 28.77 11 18.54 11 8 C7.37 8 3.74 8 0 8 C0 5.36 0 2.72 0 0 Z " fill="#F9F9FF" transform="translate(191,71)"/>
<path d="M0 0 C3.17515073 1.11006246 4.26364955 2.87144802 6 5.69921875 C6.49609375 9.07421875 6.49609375 9.07421875 6.4375 12.69921875 C6.43621094 13.89546875 6.43492187 15.09171875 6.43359375 16.32421875 C5.93627576 20.19523442 4.78292403 22.91629472 2 25.69921875 C-0.99968084 26.04344442 -3.0990702 26.25124034 -6 25.69921875 C-9.34147229 22.77543049 -9.84252732 20.99344732 -10.375 16.6171875 C-10.72493888 7.04854638 -10.72493888 7.04854638 -8.5 2.88671875 C-5.48962698 0.25264236 -3.8834727 0.02275472 0 0 Z " fill="#4B4BFF" transform="translate(245,77.30078125)"/>
<path d="M0 0 C2.69990662 1.79993774 4.5418865 3.083773 6 6 C6.35017306 11.3401391 6.46830225 14.66462219 3 19 C0.90023835 21.02976959 -0.4787137 21.87320063 -3.3125 22.5625 C-7.45873251 21.69468389 -10.10629739 19.00260539 -13 16 C-14.43304064 13.13391871 -14.30644155 11.18699217 -14 8 C-12.34976991 4.93528698 -10.943924 2.69221093 -8.125 0.625 C-5.20173359 -0.23478424 -3.03665023 -0.37183472 0 0 Z " fill="#FBF9F8" transform="translate(385,350)"/>
<path d="M0 0 C0 0.99 0 1.98 0 3 C-1.66279327 4.0064275 -3.32983484 5.00585407 -5 6 C-7.32402951 9.20937409 -7.47570691 12.11506021 -7 16 C-4.73268238 19.40097643 -1.93695237 22.16793879 1 25 C-3.29686609 25.42968661 -6.01214548 25.41369759 -9.375 22.6875 C-13.19468688 18.7768682 -13.34466315 15.50866807 -13.28515625 10.2890625 C-12.84223476 6.73355576 -11.32825076 4.65161892 -9 2 C-6.00889434 -0.12272015 -3.61562381 -0.20086799 0 0 Z " fill="#100706" transform="translate(379,348)"/>
<path d="M0 0 C1.588125 -0.061875 3.17625 -0.12375 4.8125 -0.1875 C6.15248047 -0.23970703 6.15248047 -0.23970703 7.51953125 -0.29296875 C10 0 10 0 11.796875 1.35546875 C13 3 13 3 13.4375 5.5 C13 8 13 8 11.5625 9.8125 C7.66280981 11.6196735 4.2730991 11.18851908 0 11 C0 7.37 0 3.74 0 0 Z " fill="#4A4AFF" transform="translate(276,78)"/>
<path d="M0 0 C0 1.32 0 2.64 0 4 C-8.39802254 4.12190678 -16.64251778 3.84327749 -25 3 C-25 2.34 -25 1.68 -25 1 C-16.64251778 0.15672251 -8.39802254 -0.12190678 0 0 Z " fill="#020202" transform="translate(108,112)"/>
<path d="M0 0 C1.01320313 0.00451172 2.02640625 0.00902344 3.0703125 0.01367188 C5.54693827 0.02535407 8.02343657 0.04173418 10.5 0.0625 C9.51 0.5575 9.51 0.5575 8.5 1.0625 C8.5 1.7225 8.5 2.3825 8.5 3.0625 C4.95835085 3.0917067 1.41673303 3.10936814 -2.125 3.125 C-3.62353516 3.13756836 -3.62353516 3.13756836 -5.15234375 3.15039062 C-10.05020275 3.1666087 -14.68656199 3.10568537 -19.5 2.0625 C-19.5 1.7325 -19.5 1.4025 -19.5 1.0625 C-12.96313616 0.07418844 -6.60422885 -0.05633529 0 0 Z " fill="#2B2B2B" transform="translate(125.5,394.9375)"/>
<path d="M0 0 C0.99 0.33 1.98 0.66 3 1 C2.43613497 2.65260442 1.84821283 4.29701637 1.25 5.9375 C0.76273438 7.31228516 0.76273438 7.31228516 0.265625 8.71484375 C-1 11 -1 11 -3.140625 11.81640625 C-3.75421875 11.87699219 -4.3678125 11.93757812 -5 12 C-3.41037341 7.96479403 -1.71767682 3.98188718 0 0 Z " fill="#121212" transform="translate(208,214)"/>
<path d="M0 0 C0.99 0.66 1.98 1.32 3 2 C2.34 2 1.68 2 1 2 C0.34 4.31 -0.32 6.62 -1 9 C-1.99 9 -2.98 9 -4 9 C-4.33 8.34 -4.66 7.68 -5 7 C-2.54545455 1.27272727 -2.54545455 1.27272727 0 0 Z " fill="#1C100E" transform="translate(120,215)"/>
<path d="M0 0 C1.8871875 0.0309375 1.8871875 0.0309375 3.8125 0.0625 C3.4825 1.0525 3.1525 2.0425 2.8125 3.0625 C-3.8125 3.3125 -3.8125 3.3125 -7.1875 1.0625 C-4.43671116 0.14557039 -2.82801087 -0.04636083 0 0 Z " fill="#1D1D1D" transform="translate(114.1875,339.9375)"/>
</svg>
